<svg xmlns="http://www.w3.org/2000/svg"
    xmlns:xlink="http://www.w3.org/1999/xlink" version="1.1" style="display: none;">
    <symbol id="wallet" viewBox="0 0 24 24" fill="currentColor">
        <path fill-rule="evenodd" clip-rule="evenodd" d="M20 6.17071V5C20 3.34315 18.6569 2 17 2H5C3.34315 2 2 3.34315 2 5V19C2 20.6569 3.34315 22 5 22H19C20.6569 22 22 20.6569 22 19V9C22 7.69378 21.1652 6.58254 20 6.17071ZM4 5C4 4.44772 4.44772 4 5 4H17C17.5523 4 18 4.44772 18 5V6H5C4.44772 6 4 5.55228 4 5ZM4 7.82929C4.31278 7.93985 4.64936 8 5 8H19C19.5523 8 20 8.44771 20 9V11H17C15.3431 11 14 12.3431 14 14C14 15.6569 15.3431 17 17 17H20V19C20 19.5523 19.5523 20 19 20H5C4.44772 20 4 19.5523 4 19V7.82929ZM17 13H20V15H17C16.4477 15 16 14.5523 16 14C16 13.4477 16.4477 13 17 13Z" />
    </symbol>
    <symbol id="web-development" viewBox="0 0 24 24" fill="currentColor">
        <path d="M7 6C7 6.55228 6.55228 7 6 7C5.44772 7 5 6.55228 5 6C5 5.44772 5.44772 5 6 5C6.55228 5 7 5.44772 7 6Z" />
        <path d="M10 6C10 6.55228 9.55228 7 9 7C8.44772 7 8 6.55228 8 6C8 5.44772 8.44772 5 9 5C9.55228 5 10 5.44772 10 6Z" />
        <path d="M13 6C13 6.55228 12.5523 7 12 7C11.4477 7 11 6.55228 11 6C11 5.44772 11.4477 5 12 5C12.5523 5 13 5.44772 13 6Z" />
        <path fill-rule="evenodd" clip-rule="evenodd" d="M14.7929 17.4213C14.4024 17.0308 14.4024 16.3977 14.7929 16.0071L15.8001 14.9999L14.7929 13.9928C14.4024 13.6022 14.4024 12.9691 14.7929 12.5786C15.1834 12.188 15.8166 12.188 16.2071 12.5786L17.9214 14.2928C18.3119 14.6834 18.3119 15.3165 17.9214 15.7071L16.2071 17.4213C15.8166 17.8119 15.1834 17.8119 14.7929 17.4213Z" />
        <path fill-rule="evenodd" clip-rule="evenodd" d="M9.20711 17.4213C9.59763 17.0308 9.59763 16.3977 9.20711 16.0071L8.19993 14.9999L9.20711 13.9928C9.59763 13.6022 9.59763 12.9691 9.20711 12.5786C8.81658 12.188 8.18342 12.188 7.79289 12.5786L6.07861 14.2928C5.68808 14.6834 5.68808 15.3165 6.07861 15.7071L7.79289 17.4213C8.18342 17.8119 8.81658 17.8119 9.20711 17.4213Z" />
        <path fill-rule="evenodd" clip-rule="evenodd" d="M13.1319 11.0385C12.6009 10.8868 12.0474 11.1943 11.8956 11.7253L10.1814 17.7253C10.0296 18.2563 10.3371 18.8098 10.8682 18.9615C11.3992 19.1133 11.9527 18.8058 12.1044 18.2747L13.8187 12.2747C13.9704 11.7437 13.6629 11.1902 13.1319 11.0385Z" />
        <path fill-rule="evenodd" clip-rule="evenodd" d="M2 5C2 3.34315 3.34315 2 5 2H19C20.6569 2 22 3.34315 22 5V19C22 20.6569 20.6569 22 19 22H5C3.34315 22 2 20.6569 2 19V5ZM5 4H19C19.5523 4 20 4.44771 20 5V8H4V5C4 4.44772 4.44771 4 5 4ZM4 10V19C4 19.5523 4.44772 20 5 20H19C19.5523 20 20 19.5523 20 19V10H4Z" />
    </symbol>
    <symbol id="bank" viewBox="0 0 24 24" fill="currentColor">
        <path fill-rule="evenodd" clip-rule="evenodd" d="M12.8655 4.52471C12.3184 4.26211 11.6816 4.26211 11.1345 4.52471L3.89424 8.00006L3.02878 6.19701L10.2691 2.72167C11.3633 2.19646 12.6367 2.19646 13.7309 2.72167L20.9712 6.19701C22.8897 7.11786 22.2338 10.0001 20.1058 10.0001H3.89424C1.76624 10.0001 1.11035 7.11785 3.02878 6.19701L3.89424 8.00006L20.1058 8.00006L12.8655 4.52471Z" />
        <path fill-rule="evenodd" clip-rule="evenodd" d="M12 11C12.5523 11 13 11.4477 13 12V18C13 18.5523 12.5523 19 12 19C11.4477 19 11 18.5523 11 18V12C11 11.4477 11.4477 11 12 11Z" />
        <path fill-rule="evenodd" clip-rule="evenodd" d="M5 11C5.55228 11 6 11.4477 6 12V18C6 18.5523 5.55228 19 5 19C4.44772 19 4 18.5523 4 18V12C4 11.4477 4.44772 11 5 11Z" />
        <path fill-rule="evenodd" clip-rule="evenodd" d="M19 11C19.5523 11 20 11.4477 20 12V18C20 18.5523 19.5523 19 19 19C18.4477 19 18 18.5523 18 18V12C18 11.4477 18.4477 11 19 11Z" />
        <path fill-rule="evenodd" clip-rule="evenodd" d="M2 21C2 20.4477 2.44772 20 3 20H21C21.5523 20 22 20.4477 22 21C22 21.5523 21.5523 22 21 22H3C2.44772 22 2 21.5523 2 21Z" />
    </symbol>
    <symbol id="profile" viewBox="0 0 24 24" fill="currentColor">
        <path fill-rule="evenodd" clip-rule="evenodd" d="M12 12C13.1046 12 14 11.1046 14 10C14 8.89543 13.1046 8 12 8C10.8954 8 10 8.89543 10 10C10 11.1046 10.8954 12 12 12ZM12 14C14.2091 14 16 12.2091 16 10C16 7.79086 14.2091 6 12 6C9.79086 6 8 7.79086 8 10C8 12.2091 9.79086 14 12 14Z" />
        <path fill-rule="evenodd" clip-rule="evenodd" d="M18.5588 19.5488C20.6672 17.7154 22 15.0134 22 12C22 6.47715 17.5228 2 12 2C6.47715 2 2 6.47715 2 12C2 15.0134 3.33284 17.7154 5.44116 19.5488C7.19693 21.0756 9.49052 22 12 22C14.4162 22 16.6323 21.143 18.3609 19.7165C18.4276 19.6614 18.4936 19.6055 18.5588 19.5488ZM12.2579 19.9959C12.1723 19.9986 12.0863 20 12 20C11.9914 20 11.9827 20 11.9741 20C11.8937 19.9997 11.8135 19.9983 11.7337 19.9956C10.3914 19.9517 9.13273 19.5772 8.03655 18.9508C8.95181 17.7632 10.3882 17 12 17C13.6118 17 15.0482 17.7632 15.9634 18.9508C14.865 19.5785 13.6033 19.9533 12.2579 19.9959ZM17.5624 17.7498C16.2832 16.0781 14.2675 15 12 15C9.73249 15 7.7168 16.0781 6.43759 17.7498C4.93447 16.2953 4 14.2568 4 12C4 7.58172 7.58172 4 12 4C16.4183 4 20 7.58172 20 12C20 14.2568 19.0655 16.2953 17.5624 17.7498Z" />
    </symbol>
    <symbol id="sim" viewBox="0 0 24 24" fill="currentColor">
        <path d="M6.9499 19.075H8.4499V17.575H6.9499V19.075ZM6.9499 15.175H8.4499V11.025H6.9499V15.175ZM11.1999 19.075H12.6999V14.825H11.1999V19.075ZM11.1999 12.525H12.6999V11.025H11.1999V12.525ZM15.6499 19.075H17.1499V17.575H15.6499V19.075ZM15.6499 15.175H17.1499V11.025H15.6499V15.175ZM5.6249 22.35C5.09157 22.35 4.62907 22.1542 4.2374 21.7625C3.84574 21.3708 3.6499 20.9083 3.6499 20.375V7.825L9.8249 1.625H18.3749C18.9249 1.625 19.3957 1.82083 19.7874 2.2125C20.1791 2.60417 20.3749 3.075 20.3749 3.625V20.375C20.3749 20.9083 20.1791 21.3708 19.7874 21.7625C19.3957 22.1542 18.9249 22.35 18.3749 22.35H5.6249ZM5.6249 20.375H18.3749V3.625H10.7249L5.6249 8.7V20.375ZM5.6249 20.375H18.3749H5.6249Z" />
    </symbol>
    <symbol id="home" viewBox="0 0 24 24" fill="currentColor">
        <path fill-rule="evenodd" clip-rule="evenodd" d="M5 22C3.34315 22 2 20.6569 2 19V11.3361C2 10.4857 2.36096 9.67518 2.99311 9.10625L9.9931 2.80625C11.134 1.77943 12.866 1.77943 14.0069 2.80625L21.0069 9.10625C21.639 9.67518 22 10.4857 22 11.3361V19C22 20.6569 20.6569 22 19 22H5ZM20 11.3361V19C20 19.5523 19.5523 20 19 20H16V15C16 13.3432 14.6569 12 13 12H11C9.34315 12 8 13.3432 8 15V20H5C4.44772 20 4 19.5523 4 19V11.3361C4 11.0526 4.12032 10.7825 4.33104 10.5928L11.331 4.29284C11.7113 3.95056 12.2887 3.95056 12.669 4.29284L19.669 10.5928C19.8797 10.7825 20 11.0526 20 11.3361ZM10 20V15C10 14.4478 10.4477 14 11 14H13C13.5523 14 14 14.4478 14 15V20H10Z" />
    </symbol>
    <symbol id="message" viewBox="0 0 24 24" fill="currentColor">
        <path fill-rule="evenodd" clip-rule="evenodd" d="M7 9C7 8.44772 7.44772 8 8 8H16C16.5523 8 17 8.44772 17 9C17 9.55228 16.5523 10 16 10H8C7.44772 10 7 9.55228 7 9Z" />
        <path fill-rule="evenodd" clip-rule="evenodd" d="M7 13C7 12.4477 7.44772 12 8 12H12C12.5523 12 13 12.4477 13 13C13 13.5523 12.5523 14 12 14H8C7.44772 14 7 13.5523 7 13Z" />
        <path fill-rule="evenodd" clip-rule="evenodd" d="M6.71963 17.4636C7.07906 17.164 7.53213 17 8 17H19C19.5523 17 20 16.5523 20 16V6C20 5.44771 19.5523 5 19 5H5C4.44772 5 4 5.44772 4 6V19.7299L6.71963 17.4636ZM8 19H19C20.6569 19 22 17.6569 22 16V6C22 4.34315 20.6569 3 19 3H5C3.34315 3 2 4.34315 2 6V19.7299C2 21.4256 3.97771 22.3519 5.28037 21.2664L8 19Z" />
    </symbol>
    <symbol id="notification" viewBox="0 0 24 24" fill="currentColor">
        <path fill-rule="evenodd" clip-rule="evenodd" d="M2 16.5959C2 16.2151 2.15471 15.8506 2.42864 15.586L3.45759 14.5922C3.84928 14.2139 4.06977 13.6922 4.06814 13.1476L4.05867 9.9946C4.04543 5.58319 7.61789 2 12.0293 2C16.4314 2 20 5.56859 20 9.97067L20 13.1716C20 13.702 20.2107 14.2107 20.5858 14.5858L21.5858 15.5858C21.851 15.851 22 16.2107 22 16.5858C22 17.3668 21.3668 18 20.5858 18H16C16 20.2091 14.2091 22 12 22C9.79086 22 8 20.2091 8 18H3.40408C2.62863 18 2 17.3714 2 16.5959ZM10 18C10 19.1046 10.8954 20 12 20C13.1046 20 14 19.1046 14 18H10ZM18 13.1716C18 14.2324 18.4214 15.2499 19.1716 16L4.87851 16C5.64222 15.246 6.07136 14.2161 6.06813 13.1416L6.05867 9.9886C6.04875 6.6841 8.7248 4 12.0293 4C15.3268 4 18 6.67316 18 9.97067L18 13.1716Z" />
    </symbol>
    <symbol id="arrow-left" viewBox="0 0 16 16" fill="currentColor">
        <path fill-rule="evenodd" clip-rule="evenodd" d="M10.4715 12.8047C10.7318 12.5444 10.7318 12.1223 10.4715 11.8619L6.60956 8L10.4715 4.13807C10.7318 3.87772 10.7318 3.45561 10.4715 3.19526C10.2111 2.93491 9.78903 2.93491 9.52868 3.19526L5.66675 7.05719C5.14605 7.57789 5.14605 8.42211 5.66675 8.94281L9.52868 12.8047C9.78903 13.0651 10.2111 13.0651 10.4715 12.8047Z" />
    </symbol>
    <symbol id="arrow-right" viewBox="0 0 16 16" fill="currentColor">
        <path fill-rule="evenodd" clip-rule="evenodd" d="M5.36189 12.8047C5.10154 12.5444 5.10154 12.1223 5.36189 11.8619L9.22382 8L5.36189 4.13807C5.10154 3.87772 5.10154 3.45561 5.36189 3.19526C5.62224 2.93491 6.04435 2.93491 6.3047 3.19526L10.1666 7.05719C10.6873 7.57789 10.6873 8.42211 10.1666 8.94281L6.3047 12.8047C6.04435 13.0651 5.62224 13.0651 5.36189 12.8047Z" />
    </symbol>
    <symbol id="arrow-down" viewBox="0 0 16 16" fill="currentColor">
        <path fill-rule="evenodd" clip-rule="evenodd" d="M3.19526 5.69526C3.45561 5.43491 3.87772 5.43491 4.13807 5.69526L8 9.55719L11.8619 5.69526C12.1223 5.43491 12.5444 5.43491 12.8047 5.69526C13.0651 5.95561 13.0651 6.37772 12.8047 6.63807L8.94281 10.5C8.42211 11.0207 7.57789 11.0207 7.05719 10.5L3.19526 6.63807C2.93491 6.37772 2.93491 5.95561 3.19526 5.69526Z" />
    </symbol>
    <symbol id="arrow-up" viewBox="0 0 24 24" fill="currentColor">
        <path d="M17.2929 15.7071C17.6834 16.0976 18.3166 16.0976 18.7071 15.7071C19.0976 15.3166 19.0976 14.6834 18.7071 14.2929L17.2929 15.7071ZM12 9L12.7071 8.29289C12.3166 7.90237 11.6834 7.90237 11.2929 8.29289L12 9ZM5.29289 14.2929C4.90237 14.6834 4.90237 15.3166 5.29289 15.7071C5.68342 16.0976 6.31658 16.0976 6.70711 15.7071L5.29289 14.2929ZM18.7071 14.2929L12.7071 8.29289L11.2929 9.70711L17.2929 15.7071L18.7071 14.2929ZM11.2929 8.29289L5.29289 14.2929L6.70711 15.7071L12.7071 9.70711L11.2929 8.29289Z" />
    </symbol>
    <symbol id="table-expand-arrow-left" viewBox="0 0 24 24" fill="currentColor">
        <path d="M8.29289 17.2929C7.90237 17.6834 7.90237 18.3166 8.29289 18.7071C8.68342 19.0976 9.31658 19.0976 9.70711 18.7071L8.29289 17.2929ZM15 12L15.7071 12.7071C16.0976 12.3166 16.0976 11.6834 15.7071 11.2929L15 12ZM9.70711 5.29289C9.31658 4.90237 8.68342 4.90237 8.29289 5.29289C7.90237 5.68342 7.90237 6.31658 8.29289 6.70711L9.70711 5.29289ZM9.70711 18.7071L15.7071 12.7071L14.2929 11.2929L8.29289 17.2929L9.70711 18.7071ZM15.7071 11.2929L9.70711 5.29289L8.29289 6.70711L14.2929 12.7071L15.7071 11.2929Z" />
    </symbol>
    <symbol id="table-expand-arrow-down" viewBox="0 0 24 24" fill="currentColor">
        <path d="M6.70711 8.29289C6.31658 7.90237 5.68342 7.90237 5.29289 8.29289C4.90237 8.68342 4.90237 9.31658 5.29289 9.70711L6.70711 8.29289ZM12 15L11.2929 15.7071C11.6834 16.0976 12.3166 16.0976 12.7071 15.7071L12 15ZM18.7071 9.70711C19.0976 9.31658 19.0976 8.68342 18.7071 8.29289C18.3166 7.90237 17.6834 7.90237 17.2929 8.29289L18.7071 9.70711ZM5.29289 9.70711L11.2929 15.7071L12.7071 14.2929L6.70711 8.29289L5.29289 9.70711ZM12.7071 15.7071L18.7071 9.70711L17.2929 8.29289L11.2929 14.2929L12.7071 15.7071Z" />
    </symbol>
    <symbol id="code" viewBox="0 0 64 64" fill="none">
        <path fill-rule="evenodd" clip-rule="evenodd" d="M36.2929 36.7071C35.9024 36.3166 35.9024 35.6834 36.2929 35.2929L39.5858 32L36.2929 28.7071C35.9024 28.3166 35.9024 27.6834 36.2929 27.2929C36.6834 26.9024 37.3166 26.9024 37.7071 27.2929L41.7071 31.2929C42.0976 31.6834 42.0976 32.3166 41.7071 32.7071L37.7071 36.7071C37.3166 37.0976 36.6834 37.0976 36.2929 36.7071Z" fill="#1A1D1F" />
        <path fill-rule="evenodd" clip-rule="evenodd" d="M27.7071 36.7071C28.0976 36.3166 28.0976 35.6834 27.7071 35.2929L24.4142 32L27.7071 28.7071C28.0976 28.3166 28.0976 27.6834 27.7071 27.2929C27.3166 26.9024 26.6834 26.9024 26.2929 27.2929L22.2929 31.2929C21.9024 31.6834 21.9024 32.3166 22.2929 32.7071L26.2929 36.7071C26.6834 37.0976 27.3166 37.0976 27.7071 36.7071Z" fill="#1A1D1F" />
        <path fill-rule="evenodd" clip-rule="evenodd" d="M34.2747 24.0385C33.7437 23.8868 33.1902 24.1943 33.0385 24.7253L29.0385 38.7253C28.8867 39.2563 29.1942 39.8098 29.7253 39.9615C30.2563 40.1133 30.8098 39.8058 30.9615 39.2747L34.9615 25.2747C35.1132 24.7437 34.8057 24.1902 34.2747 24.0385Z" fill="#1A1D1F" />
        <rect x="1" y="1" width="62" height="62" rx="31" stroke="#EFEFEF" stroke-width="2" />
    </symbol>
    <symbol id="search" viewBox="0 0 24 24" fill="currentColor">
        <path fill-rule="evenodd" clip-rule="evenodd" d="M18 11C18 14.866 14.866 18 11 18C7.13401 18 4 14.866 4 11C4 7.13401 7.13401 4 11 4C14.866 4 18 7.13401 18 11ZM18.0319 16.6177C19.2635 15.078 20 13.125 20 11C20 6.02944 15.9706 2 11 2C6.02944 2 2 6.02944 2 11C2 15.9706 6.02944 20 11 20C13.125 20 15.078 19.2635 16.6177 18.0319L19.2929 20.7071C19.6834 21.0976 20.3166 21.0976 20.7071 20.7071C21.0976 20.3166 21.0976 19.6834 20.7071 19.2929L18.0319 16.6177Z"/>
    </symbol>
    <symbol id="menu" viewBox="0 0 24 24" fill="currentColor">
        <path fill-rule="evenodd" clip-rule="evenodd" d="M4 16C4 15.4477 4.44772 15 5 15H19C19.5523 15 20 15.4477 20 16C20 16.5523 19.5523 17 19 17H5C4.44772 17 4 16.5523 4 16Z"/>
        <path fill-rule="evenodd" clip-rule="evenodd" d="M4 8C4 7.44772 4.44772 7 5 7H19C19.5523 7 20 7.44772 20 8C20 8.55228 19.5523 9 19 9H5C4.44772 9 4 8.55228 4 8Z"/>
    </symbol>
    <symbol id="close" viewBox="0 0 24 24" fill="currentColor">
        <path d="M6.7072 5.29289C6.31668 4.90237 5.68351 4.90237 5.29299 5.29289C4.90246 5.68342 4.90246 6.31658 5.29299 6.70711L10.5858 12L5.29289 17.2929C4.90237 17.6834 4.90237 18.3166 5.29289 18.7071C5.68342 19.0976 6.31658 19.0976 6.70711 18.7071L12 13.4142L17.293 18.7071C17.6835 19.0976 18.3167 19.0976 18.7072 18.7071C19.0977 18.3166 19.0977 17.6834 18.7072 17.2929L13.4143 12L18.7071 6.70711C19.0976 6.31658 19.0976 5.68342 18.7071 5.29289C18.3166 4.90237 17.6834 4.90237 17.2929 5.29289L12 10.5857L6.7072 5.29289Z"/>
    </symbol>
    <symbol id="modal-close" viewBox="0 0 36 36" fill="none">
        <rect width="36" height="36" rx="18" fill="#EFEFEF"/>
        <path d="M13.5896 12.4111C13.2641 12.0856 12.7365 12.0856 12.4111 12.4111C12.0856 12.7365 12.0856 13.2641 12.4111 13.5896L16.8218 18.0003L12.4111 22.4111C12.0857 22.7365 12.0857 23.2641 12.4111 23.5896C12.7365 23.915 13.2642 23.915 13.5896 23.5896L18.0003 19.1789L22.4111 23.5896C22.7365 23.915 23.2641 23.915 23.5896 23.5896C23.915 23.2642 23.915 22.7365 23.5896 22.4111L19.1788 18.0003L23.5896 13.5896C23.915 13.2641 23.915 12.7365 23.5896 12.4111C23.2642 12.0856 22.7365 12.0856 22.4111 12.4111L18.0003 16.8218L13.5896 12.4111Z" fill="#33383F"/>
    </symbol>
    <symbol id="loadmore" viewBox="0 0 24 24" fill="#1A1D1F">
        <path fill-rule="evenodd" clip-rule="evenodd" d="M12.5 2C13.0523 2 13.5 2.44772 13.5 3V5C13.5 5.55228 13.0523 6 12.5 6C11.9477 6 11.5 5.55228 11.5 5V3C11.5 2.44772 11.9477 2 12.5 2Z"/>
        <path fill-rule="evenodd" clip-rule="evenodd" d="M12.5 18C13.0523 18 13.5 18.4477 13.5 19V21C13.5 21.5523 13.0523 22 12.5 22C11.9477 22 11.5 21.5523 11.5 21V19C11.5 18.4477 11.9477 18 12.5 18Z"/>
        <path fill-rule="evenodd" clip-rule="evenodd" d="M5.42879 4.92888C5.81931 4.53836 6.45248 4.53836 6.843 4.92888L8.25721 6.34309C8.64774 6.73362 8.64774 7.36678 8.25721 7.75731C7.86669 8.14783 7.23352 8.14783 6.843 7.75731L5.42879 6.34309C5.03826 5.95257 5.03826 5.3194 5.42879 4.92888Z"/>
        <path fill-rule="evenodd" clip-rule="evenodd" d="M16.7423 16.2426C17.1328 15.8521 17.766 15.8521 18.1565 16.2426L19.5707 17.6568C19.9612 18.0473 19.9612 18.6805 19.5707 19.071C19.1802 19.4616 18.547 19.4616 18.1565 19.071L16.7423 17.6568C16.3517 17.2663 16.3517 16.6331 16.7423 16.2426Z"/>
        <path fill-rule="evenodd" clip-rule="evenodd" d="M2.5 12C2.5 11.4477 2.94772 11 3.5 11L5.5 11C6.05228 11 6.5 11.4477 6.5 12C6.5 12.5523 6.05228 13 5.5 13L3.5 13C2.94772 13 2.5 12.5523 2.5 12Z"/>
        <path fill-rule="evenodd" clip-rule="evenodd" d="M18.5 12C18.5 11.4477 18.9477 11 19.5 11L21.5 11C22.0523 11 22.5 11.4477 22.5 12C22.5 12.5523 22.0523 13 21.5 13L19.5 13C18.9477 13 18.5 12.5523 18.5 12Z"/>
        <path fill-rule="evenodd" clip-rule="evenodd" d="M5.42864 19.071C5.03811 18.6804 5.03811 18.0473 5.42864 17.6568L6.84285 16.2425C7.23337 15.852 7.86654 15.852 8.25706 16.2425C8.64759 16.6331 8.64759 17.2662 8.25706 17.6568L6.84285 19.071C6.45232 19.4615 5.81916 19.4615 5.42864 19.071Z"/>
        <path fill-rule="evenodd" clip-rule="evenodd" d="M16.7431 7.75725C16.3526 7.36672 16.3526 6.73356 16.7431 6.34304L18.1573 4.92882C18.5478 4.5383 19.181 4.5383 19.5715 4.92882C19.962 5.31935 19.962 5.95251 19.5715 6.34304L18.1573 7.75725C17.7668 8.14777 17.1336 8.14777 16.7431 7.75725Z"/>
    </symbol>

    <symbol id="nodata" width="224" height="251" viewBox="0 0 224 251" fill="none">
        <g clip-path="url(#clip0_220_20758)">
            <path d="M220.116 58.6586L216.613 75.6469L214.358 73.4473L210.522 76.1858L207.59 72.5418L201.016 77.3296L195.397 67.9189L189.13 71.5959L186.645 68.1609L178.687 72.6518L176.293 67.5193L181.872 40.4604L211.778 46.645L220.116 58.6586Z" fill="#EBEBEB"/>
            <path d="M211.777 46.645L220.116 58.6586L209.742 56.5139L211.777 46.645Z" fill="#DBDBDB"/>
            <path d="M215.867 79.0453L210.731 103.971L170.447 95.645L175.546 70.9141L177.94 76.0502L185.902 71.5593L188.384 74.9907L194.654 71.3137L200.269 80.7243L206.847 75.9365L209.776 79.5805L213.615 76.842L215.867 79.0453Z" fill="#EBEBEB"/>
            <path d="M158.21 76.1234L117.158 78.6677L113.896 25.888L144.381 24L155.571 33.3997L158.21 76.1234Z" fill="#EBEBEB"/>
            <path d="M144.381 24L155.571 33.3997L144.999 34.0559L144.381 24Z" fill="#DBDBDB"/>
            <path d="M133.001 59.509L132.843 58.3175C132.43 55.8503 133.103 53.0898 135.245 50.2046C137.174 47.6531 138.221 45.7944 138.107 43.7231C137.975 41.3769 136.42 39.8958 133.524 40.0131C131.87 40.1048 130.065 40.761 128.967 41.6995L127.704 38.8657C129.157 37.6779 131.734 36.7944 134.169 36.6587C139.447 36.3618 142.017 39.4925 142.214 42.9863C142.39 46.1134 140.772 48.4633 138.715 51.2091C136.83 53.713 136.207 55.777 136.475 58.1159L136.588 59.3074L133.008 59.509H133.001ZM132.349 66.0015C132.254 64.3005 133.334 63.0394 134.941 62.9514C136.548 62.8597 137.716 63.9962 137.811 65.6972C137.902 67.3066 136.914 68.6081 135.215 68.7034C133.608 68.795 132.437 67.6146 132.346 66.0052L132.349 66.0015Z" fill="#DBDBDB"/>
            <path d="M30.3314 50.5347L26.1987 48.6577L25.6277 49.9262C25.4593 50.3001 25.0933 50.5347 24.6869 50.553C24.46 50.564 24.2367 50.586 24.0134 50.619C23.6108 50.6814 23.2081 50.5164 22.9702 50.1864L22.1612 49.0573L18.4714 51.7042L19.2804 52.8333C19.5183 53.1633 19.5403 53.5995 19.3536 53.9624C19.2474 54.1641 19.1559 54.3694 19.0754 54.582C18.929 54.9633 18.5849 55.2346 18.1786 55.2712L16.7949 55.4069L17.2415 59.9271L18.6288 59.7877C19.0351 59.7474 19.4195 59.949 19.6428 60.2937C19.7014 60.389 19.7636 60.4806 19.8295 60.5723C19.8954 60.6639 19.9612 60.7519 20.0308 60.8399C20.2834 61.1588 20.3529 61.5878 20.1845 61.958L19.6062 63.2338L23.7389 65.1108L24.3136 63.8424C24.4819 63.4684 24.848 63.2338 25.2543 63.2155C25.4776 63.2045 25.7046 63.1825 25.9278 63.1495C26.3305 63.0872 26.7332 63.2521 26.9711 63.5821L27.7801 64.7112L31.4698 62.0643L30.6609 60.9352C30.4229 60.6053 30.401 60.169 30.5876 59.8061C30.6901 59.6044 30.7853 59.3991 30.8658 59.1902C31.0123 58.8089 31.3563 58.5376 31.7627 58.4973L33.1463 58.3617L32.6997 53.8415L31.3124 53.9771C30.9061 54.0174 30.5254 53.8158 30.3021 53.4712C30.2436 53.3759 30.1777 53.2842 30.1118 53.1926C30.0459 53.1009 29.98 53.0129 29.9105 52.925C29.6542 52.606 29.5883 52.1734 29.7567 51.8032L30.3314 50.5347ZM27.9887 54.7176C29.182 56.3893 28.8013 58.7099 27.1321 59.9087C25.463 61.1038 23.1422 60.7226 21.9452 59.0545C20.7519 57.3828 21.1326 55.0549 22.8018 53.8598C24.471 52.6647 26.7917 53.0496 27.985 54.7213L27.9887 54.7176Z" fill="#EBEBEB"/>
            <path d="M216.98 110.511L214.227 112.102L214.714 112.945C214.857 113.194 214.842 113.499 214.688 113.737C214.6 113.869 214.523 114.008 214.45 114.147C214.322 114.4 214.062 114.565 213.78 114.565H212.807V117.747H213.78C214.066 117.747 214.322 117.912 214.45 118.165C214.523 118.308 214.6 118.444 214.688 118.576C214.846 118.814 214.857 119.122 214.714 119.368L214.227 120.211L216.98 121.802L217.466 120.955C217.609 120.706 217.88 120.57 218.169 120.585C218.246 120.589 218.327 120.592 218.404 120.592C218.48 120.592 218.561 120.592 218.638 120.585C218.923 120.57 219.194 120.706 219.337 120.952L219.827 121.802L222.58 120.211L222.093 119.364C221.951 119.115 221.965 118.811 222.123 118.572C222.21 118.44 222.287 118.305 222.361 118.162C222.489 117.909 222.745 117.744 223.03 117.744H224.004V114.562H223.03C222.745 114.562 222.489 114.397 222.361 114.144C222.287 114.001 222.21 113.865 222.123 113.733C221.965 113.495 221.951 113.187 222.093 112.941L222.58 112.094L219.827 110.503L219.341 111.35C219.198 111.6 218.927 111.735 218.641 111.721C218.565 111.717 218.484 111.713 218.407 111.713C218.33 111.713 218.25 111.713 218.173 111.721C217.887 111.735 217.613 111.6 217.47 111.35L216.983 110.503L216.98 110.511ZM218.404 113.554C219.842 113.554 221.006 114.719 221.006 116.16C221.006 117.601 219.842 118.767 218.404 118.767C216.965 118.767 215.801 117.597 215.801 116.16C215.801 114.723 216.969 113.554 218.404 113.554Z" fill="#EBEBEB"/>
            <path d="M38.6849 36.9887L36.1592 38.9207L36.7522 39.6942C36.9279 39.9215 36.9535 40.2258 36.8291 40.4861C36.7595 40.629 36.7009 40.7757 36.646 40.926C36.5509 41.1936 36.3166 41.3916 36.0347 41.4282L35.0684 41.5529L35.4783 44.7093L36.4447 44.5847C36.7266 44.548 37.0048 44.6763 37.1658 44.9146C37.2573 45.0466 37.3525 45.1712 37.455 45.2922C37.6417 45.5085 37.6929 45.8091 37.5831 46.0767L37.2097 46.9749L40.1455 48.1957L40.5188 47.2938C40.6286 47.0299 40.8812 46.8576 41.1667 46.8356C41.2436 46.8283 41.3205 46.8209 41.401 46.8099C41.4779 46.7989 41.5547 46.7879 41.6316 46.7733C41.9135 46.722 42.199 46.8209 42.371 47.0482L42.9677 47.8291L45.4934 45.8971L44.9004 45.1199C44.7284 44.8926 44.7028 44.5883 44.8272 44.328C44.8968 44.1851 44.9553 44.0384 45.0102 43.8918C45.1054 43.6242 45.3397 43.4262 45.6215 43.3895L46.5879 43.2649L46.1779 40.1085L45.2116 40.2331C44.9297 40.2698 44.6515 40.1414 44.4905 39.9068C44.4026 39.7748 44.3038 39.6502 44.2013 39.5292C44.0146 39.3129 43.9633 39.0123 44.0732 38.7447L44.4465 37.8429L41.5108 36.6221L41.1374 37.5239C41.0276 37.7879 40.7751 37.9565 40.4932 37.9822C40.4163 37.9895 40.3358 37.9968 40.2589 38.0078C40.1821 38.0188 40.1052 38.0298 40.0283 38.0445C39.7465 38.0958 39.4573 37.9968 39.2852 37.7695L38.6922 36.996L38.6849 36.9887ZM40.4859 39.8225C41.9098 39.6355 43.2166 40.6437 43.4033 42.0698C43.59 43.4959 42.5833 44.8083 41.1594 44.9916C39.7355 45.1786 38.425 44.1704 38.242 42.7407C38.0553 41.3146 39.062 40.0058 40.4895 39.8188L40.4859 39.8225Z" fill="#EBEBEB"/>
            <path d="M19.8401 119.701C19.9829 116.153 19.928 112.6 19.6937 109.059C19.2142 101.753 18.0135 94.5011 16.3626 87.3744C15.4329 83.3601 14.2908 79.4155 13.1011 75.4745C13.0645 75.3572 12.8742 75.3902 12.9071 75.5148C16.5896 89.409 19.6132 103.743 19.4045 118.187C19.3459 122.227 18.8774 126.198 18.4967 130.215C18.4857 130.322 18.6614 130.366 18.687 130.256C19.4484 126.817 19.6937 123.217 19.8364 119.709L19.8401 119.701Z" fill="#EBEBEB"/>
            <path d="M12.9069 75.5112C12.9069 75.5112 7.32464 89.6987 8.57652 93.0311C9.82475 96.3672 12.4017 97.0784 12.4017 97.0784C12.4017 97.0784 8.9865 101.962 11.3731 106.54C13.7598 111.119 19.0602 110.903 19.4116 116.094C19.4116 116.094 19.7081 94.3839 12.9069 75.5112Z" fill="#EBEBEB"/>
            <path d="M18.8074 107.13C18.8147 107.108 18.8111 107.083 18.8001 107.057C18.0167 97.4118 16.3073 87.7958 13.3862 78.5172C13.3789 78.4915 13.3313 78.4988 13.3386 78.5282C14.4441 82.6781 15.4288 86.85 16.2707 91.0439C15.5459 90.2961 14.5978 89.8671 13.6058 89.5555C13.5875 89.5482 13.5766 89.5775 13.5949 89.5849C14.6271 90.0321 15.6154 90.549 16.3439 91.4252C16.5086 92.2464 16.666 93.0712 16.8197 93.8924C15.5715 92.4957 13.8438 91.8028 12.1124 91.1466C12.0867 91.1356 12.0758 91.1759 12.0977 91.1832C13.8987 91.9164 15.696 92.8659 16.9186 94.4203C17.3432 96.7739 17.7166 99.1385 18.0387 101.507C17.1272 100.554 16.0035 99.912 14.7113 99.5968C14.671 99.5858 14.6491 99.6444 14.6893 99.6554C16.0144 100.037 17.1565 100.781 18.0643 101.822C18.0716 101.829 18.079 101.833 18.0863 101.837C18.1997 102.669 18.3022 103.505 18.4011 104.341C17.6983 103.739 16.9222 103.285 16.0693 102.933C16.0474 102.922 16.0327 102.958 16.0584 102.969C16.9259 103.34 17.7056 103.871 18.3938 104.517C18.4047 104.524 18.4121 104.524 18.423 104.528C18.5146 105.323 18.6097 106.115 18.6903 106.914C17.4091 105.371 15.8278 104.253 13.9572 103.53C13.9206 103.516 13.9023 103.571 13.9353 103.589C15.7545 104.381 17.3578 105.638 18.5987 107.185C18.6317 107.229 18.6756 107.233 18.7159 107.222C18.8367 108.443 18.9428 109.667 19.0343 110.892C19.0343 110.91 19.0636 110.91 19.0636 110.892C18.9941 109.638 18.9062 108.384 18.8037 107.13H18.8074Z" fill="white"/>
            <path d="M14.3232 88.1442C13.3568 87.477 12.1269 87.1947 10.9702 87.0957C10.9409 87.0957 10.9409 87.136 10.9702 87.1397C12.1708 87.3193 13.1811 87.7556 14.2866 88.2248C14.3342 88.2468 14.3671 88.1735 14.3269 88.1442H14.3232Z" fill="white"/>
            <path d="M15.0008 103.167C14.2357 102.705 13.3609 102.445 12.4823 102.306C12.4531 102.302 12.4494 102.35 12.4823 102.354C13.3718 102.515 14.1625 102.834 14.9715 103.23C15.0044 103.248 15.0337 103.189 15.0008 103.171V103.167Z" fill="white"/>
            <path d="M34.5111 93.2617C32.1831 94.9004 29.9502 96.7921 28.0504 98.9184C26.0261 101.184 24.5509 103.758 23.5187 106.613C21.4066 112.464 20.2499 118.799 20.1437 125.017C20.0851 128.503 20.3926 131.96 21.1394 135.366C21.165 135.491 21.3517 135.454 21.3334 135.329C20.4219 129.335 20.4549 123.22 21.4359 117.241C22.3949 111.372 23.8994 104.986 27.6258 100.216C29.6537 97.6206 32.1831 95.5749 34.6832 93.4633C34.815 93.3533 34.6466 93.17 34.5111 93.2654V93.2617Z" fill="#EBEBEB"/>
            <path d="M20.9675 120.79C20.9675 120.79 22.8856 117.556 25.6749 114.763C28.4679 111.969 30.8179 109.983 31.1803 108.131C31.5427 106.283 28.3837 104.92 28.3837 104.92C28.3837 104.92 32.2455 105.613 33.3034 103.992C34.3613 102.368 34.8701 92.9648 34.8701 92.9648C34.8701 92.9648 27.8419 97.991 24.5658 105.037C21.2897 112.083 20.9639 120.794 20.9639 120.794L20.9675 120.79Z" fill="#EBEBEB"/>
            <path d="M32.4434 95.3734C29.4857 98.2842 26.5097 101.382 24.7673 105.206C24.1707 106.514 23.6619 107.875 23.2153 109.26C23.2153 109.26 23.2153 109.264 23.2153 109.268C23.1238 109.546 23.0359 109.821 22.9481 110.103C22.9408 110.118 22.9334 110.133 22.9334 110.147C22.0732 113.003 21.4656 115.954 20.9385 118.836C20.9385 118.854 20.9641 118.865 20.9678 118.847C21.2716 117.38 21.6047 115.899 21.9781 114.422C21.9927 114.422 22.0037 114.422 22.0183 114.415C22.615 114.162 23.219 114.004 23.8632 113.945C23.9035 113.942 23.9035 113.868 23.8595 113.872C23.2373 113.901 22.626 114.011 22.0366 114.206C22.377 112.875 22.7468 111.544 23.1641 110.235C24.5221 109.902 25.9387 109.722 27.3334 109.689C27.348 109.689 27.3517 109.667 27.3334 109.667C25.9277 109.601 24.6063 109.722 23.2336 110.015C23.3068 109.792 23.38 109.568 23.4569 109.345C24.372 109.136 25.2945 108.96 26.2315 108.875C26.2498 108.875 26.2462 108.846 26.2315 108.846C25.3128 108.872 24.4086 108.967 23.5155 109.176C23.8962 108.043 24.3098 106.925 24.771 105.836C25.1517 104.934 25.6019 104.08 26.0998 103.255C26.8502 103.087 27.5786 102.922 28.351 102.852C28.3729 102.852 28.3693 102.815 28.351 102.815C27.6518 102.771 26.9234 102.823 26.2462 103.024C26.6159 102.427 27.0039 101.84 27.4212 101.272C28.9989 100.924 30.5948 100.597 32.2055 100.902C32.2347 100.905 32.2421 100.861 32.2164 100.854C30.6827 100.451 29.1599 100.682 27.6299 100.986C27.7982 100.762 27.9666 100.546 28.1387 100.326C29.105 100.026 30.0677 99.8826 31.0854 99.8643C31.1073 99.8643 31.111 99.8349 31.0854 99.8313C30.1592 99.7433 29.2331 99.8313 28.34 100.077C29.6431 98.4565 31.0817 96.9314 32.5056 95.4247C32.5715 95.3551 32.5203 95.3147 32.4507 95.3844L32.4434 95.3734Z" fill="white"/>
            <path d="M32.3625 101.782C31.9013 101.734 31.4291 101.679 30.9642 101.734C30.9093 101.741 30.913 101.833 30.9679 101.833C31.4291 101.848 31.894 101.811 32.3552 101.837C32.3918 101.837 32.3955 101.785 32.3588 101.782H32.3625Z" fill="white"/>
            <path d="M27.3034 110.906C26.5639 110.899 25.8282 111.097 25.1364 111.343C25.1181 111.35 25.129 111.379 25.1473 111.372C25.8611 111.2 26.5859 111.134 27.3107 111.013C27.3693 111.002 27.3656 110.906 27.3034 110.906Z" fill="white"/>
            <path d="M25.7884 107.754C25.4882 107.739 25.1661 107.79 24.8696 107.838C24.8403 107.842 24.8403 107.893 24.8696 107.893C25.1698 107.896 25.4956 107.907 25.7921 107.849C25.8433 107.838 25.8433 107.757 25.7884 107.754Z" fill="white"/>
            <path d="M0.36271 103.244C2.62489 104.033 4.86877 105.044 6.89668 106.324C9.05637 107.691 10.8464 109.429 12.3398 111.5C15.4 115.746 17.7976 120.607 19.3167 125.611C20.1696 128.419 20.715 131.286 20.9017 134.215C20.909 134.321 20.7516 134.336 20.737 134.23C20.0891 129.171 18.6505 124.229 16.4798 119.613C14.3494 115.086 11.6553 110.269 7.54093 107.27C5.30071 105.638 2.78229 104.568 0.271197 103.439C0.13942 103.38 0.234592 103.193 0.36637 103.237L0.36271 103.244Z" fill="#EBEBEB"/>
            <path d="M17.6768 122.385C17.6768 122.385 15.378 120.211 12.4752 118.598C9.57243 116.981 7.20775 115.918 6.49029 114.507C5.76918 113.095 8.01306 111.262 8.01306 111.262C8.01306 111.262 5.04806 112.718 3.81814 111.651C2.58821 110.58 0.00390625 103.087 0.00390625 103.087C0.00390625 103.087 6.85268 105.528 11.1281 110.47C15.4036 115.412 17.6804 122.389 17.6804 122.389L17.6768 122.385Z" fill="#EBEBEB"/>
            <path d="M17.3185 120.838C13.8923 114.4 9.32397 108.575 3.06087 104.729C3.06087 104.729 3.05355 104.729 3.06087 104.733C4.70809 105.785 6.22719 106.999 7.6438 108.326C6.37727 108.289 5.08512 108.494 3.96135 109.103C3.93573 109.118 3.95403 109.151 3.97965 109.143C5.23154 108.718 6.43584 108.44 7.76826 108.502C7.78656 108.502 7.79755 108.494 7.81219 108.487C8.03548 108.7 8.25511 108.912 8.47108 109.129C7.81219 109.158 7.14598 109.25 6.50539 109.389C6.48709 109.393 6.49441 109.418 6.50905 109.415C7.20455 109.279 7.88174 109.235 8.58821 109.242C9.7376 110.397 10.8065 111.633 11.8168 112.916C11.3592 112.85 10.8797 112.886 10.4404 113.015C10.4075 113.026 10.4148 113.07 10.4514 113.066C10.9492 113.004 11.4251 113.011 11.9193 113.044C12.1059 113.282 12.2963 113.521 12.4793 113.763C11.07 113.678 9.69002 113.814 8.32466 114.166C8.30269 114.169 8.31001 114.202 8.33198 114.199C9.74493 113.92 11.1652 113.832 12.6001 113.92C12.7758 114.151 12.9405 114.389 13.1126 114.624C12.2707 114.598 11.458 114.705 10.6381 114.906C10.6051 114.914 10.6161 114.961 10.6491 114.958C11.491 114.767 12.3475 114.716 13.2114 114.756C13.9472 115.772 14.6536 116.813 15.3308 117.865C14.9721 117.792 14.5951 117.832 14.2437 117.931C14.2254 117.934 14.229 117.964 14.251 117.96C14.6536 117.912 15.0307 117.964 15.426 118.015C16.0373 118.965 16.6266 119.925 17.1904 120.893C17.2379 120.974 17.3697 120.915 17.3258 120.827L17.3185 120.838Z" fill="white"/>
            <path d="M11.9923 115.5C11.3224 115.441 10.6416 115.548 10.001 115.742C9.98267 115.749 9.98633 115.775 10.0083 115.771C10.6672 115.65 11.3188 115.603 11.985 115.57C12.0289 115.57 12.0362 115.504 11.9886 115.5H11.9923Z" fill="white"/>
            <path d="M6.0185 107.651C5.71468 107.618 5.39988 107.655 5.09972 107.706C5.06312 107.714 5.0741 107.765 5.1107 107.761C5.41086 107.728 5.71102 107.739 6.01118 107.732C6.05877 107.732 6.06975 107.659 6.0185 107.655V107.651Z" fill="white"/>
            <path d="M26.509 143.677H11.0508L13.2544 127.506L13.8181 123.36H23.7417L24.3054 127.506L26.509 143.677Z" fill="#DBDBDB"/>
            <path d="M24.3059 127.506H13.2549L13.8186 123.36H23.7422L24.3059 127.506Z" fill="#C7C7C7"/>
            <path d="M25.1579 121.923H12.3975V125.435H25.1579V121.923Z" fill="#DBDBDB"/>
            <path d="M1.22266 143.677L29.046 143.585L56.8694 143.556L112.516 143.494L168.163 143.552L195.986 143.585L223.81 143.677L195.986 143.765L168.163 143.798L112.516 143.86L56.8694 143.798L29.046 143.765L1.22266 143.677Z" fill="#263238"/>
            <path d="M113.248 171C171.216 171 218.209 165.843 218.209 159.482C218.209 153.12 171.216 147.963 113.248 147.963C55.2797 147.963 8.28711 153.12 8.28711 159.482C8.28711 165.843 55.2797 171 113.248 171Z" fill="#EBEBEB"/>
            <path d="M88.8145 157.571C87.9616 157.861 63.5059 157.945 62.5688 157.359C62.2138 157.139 61.9941 153.572 61.8477 149.253C61.8148 148.322 61.7892 147.358 61.7672 146.379L59.7832 133.313L76.1309 133.207L77.6757 146.273L77.6134 149.147C77.6134 149.147 86.9916 153.308 87.947 154.063C88.8987 154.818 89.6638 157.274 88.8109 157.564L88.8145 157.571Z" fill="#EB9481"/>
            <path d="M88.8142 157.572C87.9613 157.861 63.5056 157.946 62.5685 157.359C62.1366 157.088 61.9023 151.878 61.7705 146.383L77.679 146.28L77.6168 149.154C77.6168 149.154 86.9949 153.315 87.9503 154.071C88.9021 154.826 89.6671 157.282 88.8142 157.572Z" fill="white"/>
            <path d="M88.8145 157.571C87.9616 157.861 63.5059 157.945 62.5688 157.359C62.2137 157.139 61.9941 153.572 61.8477 149.253L77.617 149.15C77.617 149.15 86.9952 153.311 87.9506 154.067C88.9023 154.822 89.6674 157.278 88.8145 157.568V157.571Z" fill="#A6A6A6"/>
            <path d="M88.4598 156.592C84.3601 156.504 67.8147 156.545 63.7552 156.772C63.7222 156.772 63.7222 156.798 63.7552 156.798C67.8183 156.974 84.3601 156.798 88.4598 156.658C88.5477 156.658 88.5477 156.592 88.4598 156.592Z" fill="#263238"/>
            <path d="M86.377 153.194C85.4033 153.158 84.4552 153.623 83.9281 154.206C83.4193 154.763 82.9874 155.552 83.0203 156.402C83.0203 156.428 83.0679 156.428 83.0716 156.402C83.2985 154.793 84.7554 153.378 86.3807 153.246C86.4136 153.246 86.4136 153.194 86.3807 153.194H86.377Z" fill="#263238"/>
            <path d="M79.2092 149.558C77.5693 149.539 75.6695 150.126 74.6519 151.475C74.6116 151.526 74.6885 151.581 74.7361 151.556C76.2186 150.786 77.6242 150.21 79.2385 149.759C79.352 149.726 79.3263 149.558 79.2092 149.558Z" fill="#263238"/>
            <path d="M80.4797 150.049C78.8398 150.03 76.94 150.617 75.9224 151.966C75.8821 152.017 75.959 152.072 76.0066 152.047C77.4854 151.277 78.8947 150.701 80.509 150.25C80.6225 150.217 80.5969 150.049 80.4797 150.049Z" fill="#263238"/>
            <path d="M81.7463 150.54C80.1064 150.522 78.2066 151.108 77.189 152.457C77.1487 152.509 77.2256 152.564 77.2732 152.538C78.752 151.768 80.1613 151.193 81.7756 150.742C81.8891 150.709 81.8635 150.54 81.7463 150.54Z" fill="#263238"/>
            <path d="M83.0168 151.028C81.3769 151.009 79.4771 151.596 78.4595 152.945C78.4193 152.996 78.4961 153.051 78.5437 153.026C80.0226 152.256 81.4318 151.68 83.0461 151.229C83.1596 151.196 83.134 151.028 83.0168 151.028Z" fill="#263238"/>
            <path d="M64.7872 152.872C62.946 152.883 62.9606 155.749 64.8055 155.738C66.6468 155.727 66.6321 152.861 64.7872 152.872Z" fill="#263238"/>
            <path d="M80.9663 145.166C80.1317 144.48 79.0885 145.158 78.5797 145.873C77.7561 147.035 77.1887 148.663 77.1045 150.082C77.1045 150.118 77.1301 150.129 77.1557 150.129C77.1923 150.247 77.3314 150.346 77.4522 150.261C78.6163 149.448 79.9633 148.722 80.8455 147.574C81.3616 146.903 81.757 145.814 80.9663 145.166ZM78.964 148.667C78.4003 149.081 77.822 149.466 77.2729 149.898C77.5621 149.077 77.8146 148.249 78.188 147.461C78.3674 147.083 78.554 146.698 78.7847 146.35C79.1397 145.807 80.7467 144.425 80.9151 146.214C81.0102 147.2 79.6376 148.172 78.964 148.667Z" fill="#263238"/>
            <path d="M73.0308 150.709C74.462 150.925 75.9335 150.511 77.3355 150.287C77.4819 150.265 77.5149 150.096 77.4563 149.986C77.4783 149.968 77.4856 149.942 77.46 149.917C76.4167 148.956 74.883 148.175 73.4847 147.908C72.6208 147.743 71.3982 147.981 71.2737 149.055C71.1566 150.071 72.1962 150.58 73.0308 150.705V150.709ZM72.0351 149.777C70.9187 148.373 73.0308 148.252 73.664 148.395C74.0703 148.491 74.473 148.634 74.861 148.784C75.6773 149.096 76.4314 149.517 77.211 149.906C76.5155 149.972 75.831 150.1 75.1392 150.192C74.3119 150.302 72.6501 150.555 72.0351 149.777Z" fill="#263238"/>
            <path d="M35.7627 72.9304C35.7627 72.9304 54.7497 105.279 55.2585 107.549C56.0382 111.039 60.1818 145.503 60.1818 145.503L79.9375 145.147C79.9375 145.147 76.5332 114.76 73.3083 104.748C70.9839 97.5367 54.2299 73.6196 54.2299 73.6196L35.7664 72.9268L35.7627 72.9304Z" fill="#37474F"/>
            <path d="M78.1403 142.115C75.3034 142.093 65.2481 141.98 61.4741 142.335C61.4448 142.335 61.4448 142.387 61.4741 142.39C62.7736 142.577 75.3071 142.288 78.1403 142.196C78.1952 142.196 78.1916 142.119 78.1403 142.119V142.115Z" fill="#263238"/>
            <path d="M39.0021 75.8998C40.2467 77.8538 41.5608 79.7674 42.831 81.7067C44.1049 83.6461 45.3714 85.5854 46.6233 87.5394C49.1234 91.44 51.5613 95.381 53.9516 99.3476C55.0717 101.206 56.1405 103.087 56.9129 105.114C57.6743 107.123 58.1941 109.217 58.5784 111.324C58.9664 113.447 59.219 115.592 59.4606 117.736C59.7168 120.02 59.9694 122.301 60.2257 124.584C60.7454 129.255 61.2652 133.925 61.7887 138.596C61.8509 139.168 61.9168 139.743 61.9717 140.315C61.979 140.4 61.829 140.414 61.818 140.33C61.236 135.689 60.7528 131.037 60.2257 126.388C59.9621 124.075 59.6985 121.762 59.4387 119.448C59.1934 117.296 58.9628 115.144 58.6297 113.004C58.3039 110.903 57.8756 108.81 57.2387 106.775C56.5725 104.649 55.6244 102.654 54.508 100.722C52.2202 96.7667 49.7969 92.8808 47.3737 89.0021C44.9285 85.0905 42.465 81.1935 39.9063 77.3515C39.5915 76.8786 39.273 76.4057 38.9436 75.9401C38.9179 75.9034 38.9802 75.8704 39.0058 75.9071L39.0021 75.8998Z" fill="#263238"/>
            <path d="M41.9853 159.482C41.0849 159.427 17.8261 149.99 17.1782 149.096C17.1562 149.067 17.1453 149.008 17.1416 148.924C17.1453 148.124 18.7559 145.32 20.1029 141.639C20.1871 141.405 20.7874 140.312 21.622 138.838C23.9135 134.795 27.9657 127.87 27.9657 127.87L43.1677 133.919L35.8906 144.829L34.7595 147.468C34.7595 147.468 41.8938 154.852 42.4978 155.911C43.0981 156.967 42.8858 159.533 41.989 159.482H41.9853Z" fill="#EB9481"/>
            <path d="M41.9853 159.482C41.0849 159.427 17.8261 149.99 17.1782 149.096C17.1562 149.067 17.1453 149.008 17.1416 148.924C17.1453 148.124 18.7559 145.32 20.1029 141.639C20.1871 141.405 20.7874 140.312 21.622 138.838L35.8906 144.825L34.7595 147.465C34.7595 147.465 41.8938 154.848 42.4978 155.907C43.0981 156.963 42.8858 159.529 41.989 159.478L41.9853 159.482Z" fill="white"/>
            <path d="M41.9852 159.478C41.0848 159.427 17.8297 149.987 17.1818 149.092C16.9365 148.755 17.9761 145.573 20.1065 141.639L34.7594 147.468C34.7594 147.468 41.8937 154.848 42.4977 155.907C43.098 156.963 42.8857 159.529 41.9852 159.478Z" fill="#A6A6A6"/>
            <path d="M42.0216 158.44C38.255 156.82 22.9029 150.639 19.0557 149.327C19.0228 149.316 19.0154 149.338 19.0447 149.352C22.7455 151.039 38.1452 157.095 41.996 158.506C42.0765 158.536 42.1021 158.477 42.0216 158.444V158.44Z" fill="#263238"/>
            <path d="M41.3625 154.506C40.473 154.107 39.4224 154.184 38.7123 154.525C38.0315 154.851 37.336 155.416 37.0468 156.219C37.0395 156.241 37.0797 156.259 37.0944 156.237C37.907 154.833 39.7885 154.067 41.3442 154.554C41.3771 154.565 41.3918 154.521 41.3625 154.506Z" fill="#263238"/>
            <path d="M36.0803 148.44C34.5648 147.809 32.5845 147.637 31.1386 148.506C31.0837 148.539 31.1313 148.619 31.1862 148.612C32.8481 148.454 34.3672 148.451 36.0327 148.638C36.1498 148.652 36.1901 148.484 36.0803 148.44Z" fill="#263238"/>
            <path d="M37.0725 149.371C35.557 148.736 33.5767 148.568 32.1308 149.437C32.0759 149.47 32.1235 149.55 32.1784 149.543C33.8402 149.385 35.3594 149.382 37.0249 149.569C37.142 149.583 37.1823 149.415 37.0725 149.371Z" fill="#263238"/>
            <path d="M38.0686 150.302C36.5531 149.671 34.5728 149.499 33.1269 150.368C33.072 150.401 33.1196 150.482 33.1745 150.474C34.8363 150.317 36.3554 150.313 38.021 150.5C38.1381 150.515 38.1784 150.346 38.0686 150.302Z" fill="#263238"/>
            <path d="M39.0607 151.233C37.5453 150.599 35.565 150.43 34.1191 151.299C34.0642 151.332 34.1118 151.413 34.1667 151.405C35.8285 151.248 37.3476 151.244 39.0132 151.431C39.1303 151.446 39.1706 151.277 39.0607 151.233Z" fill="#263238"/>
            <path d="M21.4715 146.093C19.762 145.411 18.7005 148.073 20.4136 148.755C22.123 149.437 23.1846 146.775 21.4715 146.093Z" fill="#263238"/>
            <path d="M39.3571 145.03C38.8409 144.08 37.622 144.315 36.8789 144.792C35.6783 145.558 34.5472 146.856 33.9359 148.139C33.9212 148.172 33.9395 148.194 33.9652 148.201C33.9542 148.322 34.0457 148.469 34.1884 148.436C35.5721 148.12 37.0949 147.952 38.3394 147.222C39.0679 146.793 39.8439 145.932 39.3571 145.034V145.03ZM36.1907 147.523C35.5135 147.695 34.8327 147.834 34.1592 148.029C34.7339 147.376 35.2793 146.705 35.9235 146.111C36.231 145.829 36.5495 145.543 36.8899 145.305C37.4207 144.935 39.4266 144.26 38.9141 145.979C38.6323 146.929 36.996 147.314 36.1871 147.519L36.1907 147.523Z" fill="#263238"/>
            <path d="M29.9234 147.186C31.1679 147.923 32.687 148.091 34.0707 148.414C34.2135 148.447 34.3086 148.304 34.2977 148.183C34.3233 148.175 34.3416 148.153 34.3269 148.12C33.7193 146.837 32.5919 145.536 31.3912 144.766C30.6518 144.289 29.4292 144.051 28.9131 144.997C28.4226 145.895 29.1949 146.757 29.9234 147.186ZM29.3523 145.947C28.8435 144.224 30.8495 144.905 31.3802 145.279C31.7207 145.518 32.0391 145.804 32.3466 146.09C32.9872 146.683 33.5289 147.358 34.1036 148.01C33.4338 147.813 32.7529 147.673 32.0757 147.497C31.2704 147.288 29.6342 146.896 29.356 145.947H29.3523Z" fill="#263238"/>
            <path d="M37.0655 144.216L20.0479 137.335C20.0479 137.335 41.1469 106.269 41.3007 103.956C41.4398 101.907 32.1714 84.0825 31.8053 78.8877C31.41 73.2824 34.1078 68.9418 37.0691 66.251L54.6248 73.7223C54.6248 73.7223 52.7726 76.6918 49.8552 78.3415C49.8552 78.3415 58.8564 98.9445 58.3476 105.279C57.8351 111.647 37.0655 144.216 37.0655 144.216Z" fill="#37474F"/>
            <path d="M37.82 140.975C35.3601 139.916 36.0813 140.184 33.6068 139.153C32.3951 138.647 24.4446 135.337 23.2329 135.066C23.2073 135.058 23.189 135.102 23.211 135.117C24.2689 135.766 32.278 138.937 33.5006 139.421C35.9934 140.403 35.2869 140.096 37.7907 141.052C37.8383 141.071 37.8676 141.001 37.82 140.979V140.975Z" fill="#263238"/>
            <path d="M52.7441 77.9679C50.9138 78.3602 49.1202 79.009 47.3961 79.7056C47.3302 79.7312 47.3595 79.8339 47.4327 79.8119C49.2263 79.2877 51.0529 78.7964 52.8136 78.1769C52.9527 78.1292 52.8832 77.9386 52.7441 77.9679Z" fill="#263238"/>
            <path d="M50.6613 77.2456C50.4893 77.5462 50.3429 77.8652 50.2111 78.1878C50.1086 78.4371 49.9805 78.7047 49.9805 78.976C49.9805 79.0273 50.05 79.042 50.083 79.009C50.288 78.8073 50.3941 78.5141 50.5222 78.2648C50.6723 77.9751 50.826 77.6855 50.9688 77.3922C51.064 77.1979 50.7638 77.0586 50.6577 77.2419L50.6613 77.2456Z" fill="#263238"/>
            <path d="M50.8738 75.5921C50.9799 75.3208 51.0897 75.0532 51.2032 74.7819C51.3203 74.5033 51.4558 74.232 51.5546 73.9461C51.5693 73.9021 51.6425 73.9314 51.6242 73.9754C51.518 74.2467 51.4485 74.5363 51.3606 74.8149C51.2728 75.0935 51.1849 75.3722 51.0897 75.6508C50.9177 76.1677 50.709 76.6809 50.4857 77.1795C50.7713 77.1758 51.0678 77.1648 51.3277 77.0329C51.6095 76.8899 51.7816 76.5893 51.9207 76.318C52.0744 76.0137 52.2172 75.7058 52.3782 75.4052C52.5539 75.0715 52.7479 74.7453 52.8651 74.386C52.8797 74.342 52.9493 74.3713 52.9346 74.4153C52.6711 75.1559 52.4112 75.9001 51.9975 76.5819C51.8365 76.8496 51.7047 77.1318 51.4082 77.2345C51.0897 77.3481 50.7383 77.3261 50.4052 77.3005C50.365 77.3115 50.31 77.2858 50.3247 77.2345C50.4821 76.6809 50.6578 76.12 50.8738 75.5848V75.5921Z" fill="#263238"/>
            <path d="M50.1262 79.0158C50.7485 80.3393 51.2976 81.659 51.8832 82.9788C52.4543 84.2692 52.985 85.5743 53.5048 86.8831C54.5517 89.5336 55.4888 92.2318 56.3124 94.9593C56.7187 96.3084 57.0958 97.6685 57.4325 99.036C57.773 100.407 58.1024 101.793 58.2452 103.204C58.3879 104.619 58.2854 106.016 57.8938 107.383C57.4948 108.769 56.9677 109.983 56.3454 111.28C55.9647 112.072 55.8329 111.966 56.0159 111.566C56.5394 110.43 57.9121 106.988 57.8132 104.095C57.7657 102.698 57.4801 101.324 57.1653 99.9671C56.8432 98.5814 56.4808 97.2066 56.0855 95.8429C55.3058 93.152 54.3797 90.5161 53.428 87.8839C52.8935 86.4102 52.3225 84.9511 51.7808 83.4774C51.2353 81.9963 50.6716 80.6619 50.0676 79.0415C50.053 78.9975 50.1152 78.9755 50.1335 79.0158H50.1262Z" fill="#263238"/>
            <path d="M37.2087 74.6387C37.5125 74.525 37.9371 74.712 38.2482 74.7633C38.6472 74.8293 39.0499 74.8697 39.4525 74.8843C39.8515 74.899 40.2505 74.8843 40.6495 74.844C41.0448 74.8073 41.4512 74.756 41.7952 74.5397C42.3773 74.1768 42.8605 73.5389 43.2558 72.9853C43.6877 72.3804 44.138 71.6839 44.3942 70.9837C44.4088 70.9397 44.4711 70.969 44.4601 71.013C44.332 71.4199 44.2368 71.8342 44.0721 72.2338C43.9183 72.6077 43.7207 72.967 43.512 73.3153C43.1203 73.9605 42.6701 74.6534 41.9966 75.0383C41.2901 75.4416 40.3823 75.4159 39.5953 75.3719C39.1414 75.3462 38.6875 75.2839 38.2409 75.1923C37.9188 75.1226 37.377 75.0713 37.1721 74.789C37.1354 74.7377 37.1537 74.6607 37.216 74.6387H37.2087Z" fill="#263238"/>
            <path d="M24.9054 134.087C27.702 129.849 30.4473 125.574 33.1415 121.271C35.8429 116.956 38.4967 112.608 41.114 108.238C41.7399 107.193 42.4611 106.148 42.8637 104.99C43.303 103.732 43.0541 102.512 42.6551 101.28C41.9266 99.0215 41.0225 96.8255 40.0415 94.6662C39.0605 92.4996 38.0026 90.3697 36.963 88.2324C35.9307 86.1134 34.8363 83.9835 34.0529 81.7545C33.3062 79.6246 33.0207 77.4176 33.5954 75.2107C34.1627 73.0184 35.3927 71.0534 36.6775 69.2167C37.0179 68.7328 37.362 68.2526 37.7024 67.7687C37.728 67.732 37.783 67.776 37.7573 67.8127C36.3407 69.7263 34.9607 71.7536 34.1298 74.0009C33.7198 75.1117 33.4526 76.2812 33.427 77.4653C33.4013 78.6677 33.6246 79.8629 33.9797 81.0103C34.6679 83.2393 35.755 85.3509 36.769 87.4442C37.8049 89.5851 38.8665 91.7114 39.8658 93.8707C40.8687 96.041 41.8095 98.248 42.5819 100.514C42.9259 101.522 43.3103 102.578 43.2847 103.659C43.259 104.843 42.6953 105.91 42.1097 106.907C39.5656 111.255 36.9227 115.544 34.2506 119.811C31.5674 124.093 28.8294 128.346 26.0474 132.566C25.696 133.097 25.3446 133.629 24.9932 134.16C24.9493 134.226 24.8541 134.149 24.898 134.083L24.9054 134.087Z" fill="#263238"/>
            <path d="M55.5995 53.9623C57.1844 57.445 65.1863 62.2438 68.9346 62.7607C71.6324 63.131 79.8209 63.2593 82.6285 62.8304C85.9193 62.3281 83.4045 53.4344 81.4608 53.6616C76.1165 54.2885 71.5775 54.9851 70.1536 54.9851C68.4112 54.9851 58.9854 51.9533 57.847 51.528C55.0687 50.4832 54.699 51.9899 55.5995 53.9623Z" fill="#EB9481"/>
            <path d="M55.6505 54.8865C57.6564 57.8596 64.3258 62.7208 64.3258 62.7208L65.2519 60.6678L68.3158 53.882C68.3158 53.882 62.1918 51.9463 58.1616 51.0848C57.6162 50.9675 57.1366 50.8979 56.7193 50.8795C54.146 50.7402 53.9227 52.3349 55.6541 54.8902L55.6505 54.8865Z" fill="#FFC727"/>
            <path d="M55.6505 54.8863C57.6564 57.8594 64.3258 62.7205 64.3258 62.7205L65.2519 60.6676C62.7665 57.7751 58.9266 53.3942 56.7193 50.8756C54.146 50.7363 53.9227 52.331 55.6541 54.8863H55.6505Z" fill="#263238"/>
            <path d="M63.1215 61.3459C63.6303 60.0994 65.8925 55.066 66.4562 54.0102C66.4965 53.9369 66.5514 53.9442 66.5184 54.0248C65.0835 57.7972 63.7291 60.1654 63.1691 61.3642C63.1545 61.3935 63.1069 61.3789 63.1178 61.3459H63.1215Z" fill="#263238"/>
            <path d="M80.4832 53.7607C83.7373 53.3317 87.7602 52.6022 91.1645 54.0503C91.8343 54.3326 92.0759 54.8348 92.0759 54.8348C93.6133 55.458 93.7817 56.3709 93.7817 56.3709C95.0373 57.39 95.0812 58.3505 95.0812 58.3505C95.0812 58.3505 96.8785 59.1021 96.6076 60.2642C96.3075 61.5693 93.8403 60.2642 92.043 60.3705C87.9286 60.6235 82.1487 62.1375 80.97 62.3318L80.4795 53.7643L80.4832 53.7607Z" fill="#EB9481"/>
            <path d="M87.5447 57.6026C88.7563 57.5513 89.9459 57.4707 91.1612 57.5843C92.4936 57.709 93.7529 58.0536 95.0413 58.3725C95.0816 58.3835 95.0999 58.3285 95.0596 58.3102C92.8121 57.3643 89.9313 57.1151 87.541 57.5476C87.4824 57.5586 87.4824 57.6063 87.541 57.6026H87.5447Z" fill="#263238"/>
            <path d="M87.0316 55.1353C88.2139 55.1499 90.2931 55.1939 93.7705 56.4074C93.7815 56.411 93.7925 56.3927 93.7815 56.389C91.6291 55.3002 89.4219 54.9116 87.0352 55.0803C86.962 55.0839 86.9547 55.1353 87.0352 55.1353H87.0316Z" fill="#263238"/>
            <path d="M86.7791 53.8084C88.7887 53.9111 90.0443 54.2337 92.0649 54.8422C92.0758 54.8422 92.0868 54.8276 92.0722 54.8202C89.8466 53.8854 88.9351 53.8011 86.7718 53.7388C86.6986 53.7388 86.6986 53.8048 86.7791 53.8084Z" fill="#263238"/>
            <path d="M87.1047 60.9902C86.5813 61.2359 86.7057 61.5108 87.7087 61.7454C88.719 61.9837 92.8627 62.046 92.7162 63.4941C92.5735 64.9495 86.7094 64.7626 85.0731 64.2493C83.4369 63.7397 80.9697 62.3283 80.9697 62.3283C82.1191 62.134 84.8572 61.3972 87.1047 60.9902Z" fill="#EB9481"/>
            <path d="M59.9512 59.5164C59.9256 60.1433 59.8634 60.7812 59.7755 61.4117C59.7828 61.3897 59.7938 61.3677 59.8011 61.3457C59.9219 61.0158 60.0427 60.6785 60.1892 60.3596C60.1965 60.3412 60.2258 60.3486 60.2221 60.3669C60.1562 60.7115 60.0354 61.0598 59.9036 61.3861C59.8414 61.5437 59.7755 61.6977 59.7096 61.8516C59.6657 62.1339 59.6145 62.4125 59.5559 62.6875C59.4461 63.2117 58.9519 65.4407 58.8421 65.8183C58.8201 65.8989 58.725 65.8806 58.7286 65.7926C58.7542 65.382 59.1715 63.0578 59.2557 62.5335C59.4168 61.5254 59.6401 60.4952 59.9073 59.5091C59.9146 59.4871 59.9476 59.4981 59.9476 59.5201L59.9512 59.5164Z" fill="#263238"/>
            <path d="M56.1372 76.182C55.1598 76.6879 53.9006 77.4688 48.2269 76.347C47.8718 76.2737 47.5167 76.1893 47.158 76.083C41.8393 74.481 35.4554 68.2157 35.0967 67.7758C35.0967 67.7758 43.5451 54.0539 54.3545 49.739C55.6906 49.2074 57.9015 50.2339 59.1278 51.5134C59.5634 51.9716 60.5151 55.337 60.1491 58.0645C59.783 60.7884 57.1182 75.6834 56.1335 76.182H56.1372Z" fill="#FFC727"/>
            <path d="M55.383 57.9399C55.4123 58.2332 55.3903 58.5228 55.3537 58.8088C55.3098 59.0947 55.2549 59.377 55.1451 59.652C55.1121 59.3587 55.1378 59.0691 55.1744 58.7831C55.2183 58.4972 55.2732 58.2149 55.383 57.9399Z" fill="white"/>
            <path d="M51.6975 67.2847C51.7267 67.5779 51.7048 67.8676 51.6682 68.1535C51.6243 68.4395 51.5693 68.7217 51.4595 68.9967C51.4266 68.7034 51.4522 68.4138 51.4888 68.1279C51.5327 67.8419 51.5876 67.5596 51.6975 67.2847Z" fill="white"/>
            <path d="M45.4338 60.2236C45.4631 60.5169 45.4411 60.8065 45.4045 61.0925C45.3606 61.3784 45.3057 61.6607 45.1959 61.9357C45.1629 61.6424 45.1885 61.3528 45.2251 61.0668C45.2691 60.7809 45.324 60.4986 45.4338 60.2236Z" fill="white"/>
            <path d="M57.7961 66.8115C57.8254 67.1048 57.8034 67.3944 57.7668 67.6804C57.7229 67.9663 57.668 68.2486 57.5582 68.5236C57.5252 68.2303 57.5508 67.9407 57.5874 67.6547C57.6314 67.3688 57.6863 67.0865 57.7961 66.8115Z" fill="white"/>
            <path d="M49.7539 59.0102C50.0467 58.9808 50.3359 59.0028 50.6214 59.0395C50.907 59.0835 51.1888 59.1385 51.4634 59.2485C51.1705 59.2815 50.8813 59.2558 50.5958 59.2191C50.3103 59.1751 50.0284 59.1202 49.7539 59.0102Z" fill="white"/>
            <path d="M42.6445 65.7631C42.9374 65.7338 43.2266 65.7558 43.5121 65.7924C43.7976 65.8364 44.0794 65.8914 44.354 66.0014C44.0611 66.0344 43.772 66.0087 43.4864 65.9721C43.2009 65.9281 42.9191 65.8731 42.6445 65.7631Z" fill="white"/>
            <path d="M51.0059 73.0693C51.2987 73.0399 51.5879 73.0619 51.8734 73.0986C52.1589 73.1426 52.4408 73.1976 52.7153 73.3075C52.4225 73.3405 52.1333 73.3149 51.8478 73.2782C51.5623 73.2342 51.2804 73.1792 51.0059 73.0693Z" fill="white"/>
            <path d="M40.4521 70.4154C40.745 70.3861 41.0342 70.4081 41.3197 70.4448C41.6052 70.4888 41.8871 70.5438 42.1616 70.6537C41.8688 70.6867 41.5796 70.6611 41.2941 70.6244C41.0085 70.5804 40.7267 70.5254 40.4521 70.4154Z" fill="white"/>
            <path d="M55.3281 51.3739C55.621 51.3446 55.9101 51.3666 56.1957 51.4033C56.4812 51.4473 56.763 51.5023 57.0376 51.6122C56.7447 51.6452 56.4556 51.6196 56.17 51.5829C55.8845 51.5389 55.6027 51.4839 55.3281 51.3739Z" fill="white"/>
            <path d="M53.2601 53.7129C53.0734 53.9438 52.8538 54.1308 52.6269 54.3068C52.3963 54.4791 52.1583 54.6367 51.8838 54.754C52.0705 54.5231 52.2901 54.3361 52.5171 54.1601C52.7477 53.9878 52.9893 53.8302 53.2601 53.7129Z" fill="white"/>
            <path d="M41.9896 60.3555C41.8029 60.5864 41.5833 60.7734 41.3564 60.9494C41.1258 61.1217 40.8878 61.2793 40.6133 61.3966C40.8 61.1657 41.0196 60.9787 41.2465 60.8027C41.4772 60.6341 41.7187 60.4728 41.9896 60.3555Z" fill="white"/>
            <path d="M56.0638 63.3584C55.8772 63.5894 55.6575 63.7763 55.4306 63.9523C55.2 64.1246 54.962 64.2822 54.6875 64.3995C54.8742 64.1686 55.0938 63.9816 55.3208 63.8057C55.5514 63.637 55.793 63.4757 56.0638 63.3584Z" fill="white"/>
            <path d="M46.9496 69.1064C46.7629 69.3374 46.5433 69.5244 46.3163 69.7003C46.0857 69.8726 45.8478 70.0303 45.5732 70.1476C45.7599 69.9166 45.9796 69.7297 46.2065 69.5537C46.4371 69.3814 46.6787 69.2238 46.9496 69.1064Z" fill="white"/>
            <path d="M59.556 55.502C59.3693 55.7329 59.1497 55.9199 58.9228 56.0958C58.6922 56.2682 58.4542 56.4258 58.1797 56.5431C58.3664 56.3121 58.586 56.1252 58.813 55.9492C59.0436 55.7806 59.2852 55.6193 59.556 55.502Z" fill="white"/>
            <path d="M59.3628 62.1665C59.1322 61.9795 58.9455 61.7596 58.7698 61.5323C58.5978 61.3013 58.4404 61.063 58.3232 60.7881C58.5539 60.9751 58.7405 61.195 58.9162 61.4223C59.0846 61.6533 59.2457 61.8952 59.3628 62.1665Z" fill="white"/>
            <path d="M39.0503 66.7529C38.8197 66.566 38.633 66.346 38.4573 66.1187C38.2853 65.8878 38.1279 65.6495 38.0107 65.3745C38.2414 65.5615 38.428 65.7814 38.6037 66.0087C38.7721 66.2397 38.9332 66.4816 39.0503 66.7529Z" fill="white"/>
            <path d="M56.895 72.2153C56.6644 72.0284 56.4778 71.8084 56.302 71.5811C56.13 71.3502 55.9726 71.1119 55.8555 70.8369C56.0861 71.0239 56.2728 71.2438 56.4485 71.4711C56.6169 71.7021 56.7779 71.9441 56.895 72.2153Z" fill="white"/>
            <path d="M47.9527 56.6528C47.7221 56.4659 47.5354 56.2459 47.3597 56.0186C47.1876 55.7877 47.0302 55.5494 46.9131 55.2744C47.1437 55.4614 47.3304 55.6813 47.5061 55.9086C47.6745 56.1396 47.8355 56.3816 47.9527 56.6528Z" fill="white"/>
            <path d="M48.1099 75.3242C47.8793 75.1373 47.6926 74.9173 47.5169 74.69C47.3448 74.459 47.1874 74.2208 47.0703 73.9458C47.3009 74.1328 47.4876 74.3527 47.6633 74.58C47.8317 74.811 47.9928 75.0529 48.1099 75.3242Z" fill="white"/>
            <path d="M49.6294 64.3076C49.3988 64.1207 49.2121 63.9007 49.0364 63.6734C48.8644 63.4424 48.707 63.2042 48.5898 62.9292C48.8205 63.1162 49.0071 63.3361 49.1828 63.5634C49.3512 63.7944 49.5123 64.0363 49.6294 64.3076Z" fill="white"/>
            <path d="M57.1434 55.1649C55.7671 54.9083 54.4676 52.0525 54.3029 50.1315C54.2919 49.9995 54.9471 48.9547 55.6829 47.6459C56.1258 46.8504 56.6017 45.9522 56.975 45.1054C57.0519 44.9294 57.5021 45.5123 57.5021 45.5123L58.4831 46.2638L61.7227 48.7531C61.7227 48.7531 60.4122 50.3038 59.768 51.7885C59.7167 51.9132 59.6765 52.0341 59.6508 52.1551C59.6472 52.1735 59.6435 52.1918 59.6325 52.2174C59.4495 52.9287 58.4648 55.4179 57.1361 55.1686L57.1434 55.1649Z" fill="#EB9481"/>
            <path d="M59.6583 52.155C59.6583 52.155 59.651 52.1916 59.64 52.2173C59.4643 52.166 59.2776 52.0963 59.0799 52.0047C55.5329 50.3403 57.0959 45.5781 57.0959 45.5781L58.4833 46.2673L61.7228 48.7566C61.7228 48.7566 60.4123 50.3073 59.7681 51.792C59.7169 51.9167 59.6766 52.0376 59.651 52.1586L59.6583 52.155Z" fill="#263238"/>
            <path d="M65.4492 38.6089C65.4492 38.6089 67.0708 39.639 67.0818 41.472C67.0928 43.3051 66.3643 45.0977 66.196 45.1601C66.0276 45.2224 65.4529 38.6089 65.4529 38.6089H65.4492Z" fill="#263238"/>
            <path d="M57.4034 39.5587C56.4297 41.487 56.4773 47.5506 57.6963 49.1124C59.4606 51.378 62.8576 52.1588 64.9111 49.9189C66.8987 47.7486 66.6974 39.8447 65.2881 38.3709C63.2163 36.2006 58.8457 36.7139 57.4071 39.5587H57.4034Z" fill="#EB9481"/>
            <path d="M62.5714 44.4194C62.5714 44.4194 62.5384 44.4414 62.5421 44.4561C62.564 44.8704 62.5201 45.3469 62.1504 45.4936C62.1394 45.4972 62.1394 45.5192 62.1541 45.5156C62.608 45.4423 62.6592 44.808 62.5714 44.4194Z" fill="#263238"/>
            <path d="M62.1945 43.9944C61.5283 43.9577 61.51 45.2958 62.1249 45.3252C62.7326 45.3581 62.7509 44.0237 62.1945 43.9944Z" fill="#263238"/>
            <path d="M64.8307 44.4048C64.8307 44.4048 64.8636 44.4231 64.8636 44.4414C64.8453 44.8557 64.8893 45.3323 65.2626 45.4753C65.2736 45.4789 65.2736 45.5009 65.259 45.4973C64.8051 45.4276 64.7465 44.7934 64.8344 44.4048H64.8307Z" fill="#263238"/>
            <path d="M65.2078 43.976C65.874 43.9357 65.9033 45.2701 65.2883 45.3068C64.6807 45.3434 64.6514 44.009 65.2078 43.976Z" fill="#263238"/>
            <path d="M61.7777 42.9787C61.9607 42.9347 62.1218 42.865 62.2975 42.8064C62.4951 42.7367 62.6598 42.7037 62.7916 42.5278C62.8612 42.4325 62.8355 42.2638 62.7514 42.1868C62.5537 42.0072 62.2901 42.0292 62.0485 42.1025C61.785 42.1832 61.602 42.3115 61.4482 42.5388C61.2981 42.7587 61.5361 43.0373 61.774 42.9824L61.7777 42.9787Z" fill="#263238"/>
            <path d="M65.6689 43.5724C65.4859 43.5394 65.3212 43.4771 65.1418 43.4257C64.9405 43.3671 64.7721 43.3414 64.633 43.1728C64.5561 43.0811 64.5744 42.9125 64.6549 42.8282C64.8416 42.6376 65.1052 42.6486 65.3541 42.7072C65.6213 42.7732 65.808 42.8905 65.9764 43.1105C66.1374 43.3231 65.9178 43.6127 65.6726 43.5687L65.6689 43.5724Z" fill="#263238"/>
            <path d="M61.6314 48.3349C61.7302 48.4338 61.8254 48.5695 61.9755 48.5842C62.1182 48.5988 62.2866 48.5365 62.4221 48.4888C62.4367 48.4852 62.4477 48.4998 62.4404 48.5108C62.3306 48.6685 62.1036 48.7638 61.9133 48.7271C61.7266 48.6905 61.6387 48.5292 61.5948 48.3569C61.5875 48.3312 61.6204 48.3239 61.6351 48.3385L61.6314 48.3349Z" fill="#263238"/>
            <path d="M64.0287 46.5678C64.0287 46.5678 64.047 47.1874 64.014 47.4733C64.014 47.499 63.2014 47.3414 62.3302 47.532C62.1984 47.5613 62.2131 47.455 62.3632 47.3854C62.667 47.246 63.0477 47.1141 63.7944 47.1947C63.8237 47.1177 63.7505 46.2416 63.7944 46.2452C63.9518 46.2489 64.252 46.3882 64.4313 46.4652C64.4313 45.1747 64.2263 43.8953 64.2446 42.6122C64.2446 42.5682 64.3142 42.5609 64.3215 42.6012C64.6327 43.9283 64.6619 45.413 64.6985 46.7438C64.7059 46.9088 64.1385 46.6302 64.0287 46.5678Z" fill="#263238"/>
            <path d="M63.2053 47.2531C63.2053 47.2531 62.9161 47.979 62.4366 48.1733C61.8839 48.3969 61.6935 47.8946 62.2572 47.4511C62.5537 47.2201 63.2053 47.2531 63.2053 47.2531Z" fill="#263238"/>
            <path d="M62.6306 48.0596C62.5683 48.1073 62.5061 48.1476 62.4366 48.1733C61.9277 48.3786 61.7264 47.9716 62.1364 47.561C62.4146 47.583 62.7184 47.6857 62.6306 48.0596Z" fill="#FF99BA"/>
            <path d="M57.1259 44.7496C57.7957 44.9549 58.5645 42.9386 58.7841 42.165C58.9744 41.4832 59.1977 39.3165 59.2307 39.1662C59.2636 39.0196 62.1481 41.0836 63.8356 40.5886C65.523 40.0937 66.6505 38.5797 66.6724 37.8721C66.6944 37.1646 64.6006 35.3682 62.7887 35.2766C60.9767 35.1849 58.5242 37.4909 58.5242 37.4909C58.5242 37.4909 59.3588 36.4937 59.3295 36.4131C59.3002 36.3324 58.1289 36.8017 57.9129 37.6338C57.9129 37.6338 58.1435 36.5854 58.0556 36.567C57.9678 36.5487 57.0563 37.4469 57.2613 38.1251C57.2613 38.1251 56.2071 39.0379 56.1119 40.0387C56.0131 41.0396 56.3389 44.504 57.1259 44.7459V44.7496Z" fill="#263238"/>
            <path d="M65.0325 40.2368C64.52 40.4715 64.0039 40.7317 63.4402 40.8087C62.8289 40.8894 62.1919 40.7354 61.6209 40.5154C61.0389 40.2918 60.5081 39.9655 60.0249 39.5696C59.604 39.2213 59.2269 38.8034 58.7767 38.4918C58.6632 38.4148 58.5351 38.5761 58.601 38.6824C59.2855 39.7089 60.4971 40.5704 61.6612 40.9407C62.8874 41.3293 64.0441 41.058 65.0361 40.2515C65.0434 40.2478 65.0361 40.2332 65.0288 40.2368H65.0325Z" fill="#263238"/>
            <path d="M57.8247 44.5701C57.8247 44.5701 56.7851 42.4585 55.8481 42.7995C54.911 43.1404 55.4893 46.0622 56.4447 46.5938C57.4001 47.129 57.9126 46.2528 57.9126 46.2528L57.8247 44.5701Z" fill="#EB9481"/>
            <path d="M56.0346 43.6316C56.0346 43.6316 56.0126 43.6499 56.0236 43.6573C56.6898 44.0569 56.9643 44.7754 57.1217 45.4976C56.9497 45.2007 56.6861 45.0137 56.2945 45.2116C56.2725 45.2226 56.2871 45.2556 56.3091 45.252C56.6093 45.2336 56.8142 45.318 56.9716 45.5819C57.0851 45.7689 57.1474 45.9925 57.2206 46.1978C57.2425 46.2675 57.3633 46.2491 57.3523 46.1721V46.1538C57.5061 45.2483 56.9973 43.8699 56.0382 43.6279L56.0346 43.6316Z" fill="#263238"/>
            <path d="M50.9605 53.9952C50.243 58.1488 54.7234 72.142 57.6042 74.7558C61.8907 78.6418 69.8156 81.197 72.6891 82.0292C73.941 82.3921 77.4038 73.5717 76.1373 72.9888C73.4249 71.746 64.9984 69.1138 64.2041 68.4356C63.4098 67.7611 58.567 60.781 56.4146 56.7593C53.5265 51.3593 51.3192 51.8945 50.9568 53.9952H50.9605Z" fill="#EB9481"/>
            <path d="M74.0036 72.2151C74.0036 72.2151 77.741 73.1683 80.1569 73.9088C81.504 74.3194 83.7515 75.2359 84.6044 75.9911C85.8783 77.1239 90.4831 82.6669 89.1654 83.8144C87.972 84.8519 84.619 79.5838 84.619 79.5838C84.619 79.5838 88.4699 84.5989 86.8044 85.5851C85.1388 86.5712 82.1409 80.1154 82.1409 80.1154C82.1409 80.1154 85.9844 85.3578 84.1029 86.102C82.6826 86.6629 79.6371 80.9695 79.6371 80.9695C79.6371 80.9695 82.9096 85.4971 81.4747 86.1386C79.8897 86.8462 76.749 81.7687 76.749 81.7687C72.8249 82.7842 70.5445 81.6588 69.0144 80.6653C68.6447 80.4233 74.0073 72.2114 74.0073 72.2114L74.0036 72.2151Z" fill="#EB9481"/>
            <path d="M83.396 77.7654C83.8682 78.3373 84.3514 78.9165 84.776 79.5287C85.197 80.1409 85.596 80.7715 85.9584 81.4204C86.8479 83.0151 87.1553 84.1516 87.1297 84.0819C86.5001 82.4689 85.0249 80.2509 84.604 79.6387C84.183 79.0265 83.795 78.3922 83.3741 77.78C83.3631 77.7653 83.385 77.7507 83.3997 77.7654H83.396Z" fill="#263238"/>
            <path d="M81.1599 79.2463C81.9726 79.8915 83.6747 82.2927 84.3336 83.8984C84.3629 83.9644 84.3262 83.9608 84.286 83.8984C83.7698 83.1029 81.6944 80.0235 81.1416 79.2573C81.1343 79.2463 81.1489 79.2353 81.1599 79.2463Z" fill="#263238"/>
            <path d="M79.0109 80.174C79.9517 81.1052 80.7387 82.3773 81.361 83.8474C81.3903 83.9133 81.3354 83.9023 81.2987 83.84C80.541 82.6046 79.9553 81.6294 78.9743 80.2033C78.9597 80.1813 78.9926 80.1483 79.0146 80.1703L79.0109 80.174Z" fill="#263238"/>
            <path d="M55.035 54.3031C51.693 49.5703 49.6944 51.3226 50.3642 56.4624C50.9902 61.2685 52.674 66.9948 52.674 66.9948L61.1078 62.9036C61.1078 62.9036 57.1727 57.3349 55.035 54.3031Z" fill="#FFC727"/>
            <path d="M57.0774 56.1616C57.1982 56.4329 57.2605 56.7152 57.3154 56.9975C57.3629 57.2798 57.3959 57.5694 57.3739 57.8627C57.2531 57.5914 57.1872 57.3127 57.136 57.0268C57.0921 56.7445 57.0591 56.4549 57.0774 56.1616Z" fill="white"/>
            <path d="M52.0889 59.0432C52.3597 58.9222 52.6379 58.8599 52.9235 58.8049C53.2053 58.7572 53.4945 58.7242 53.7873 58.7462C53.5165 58.8672 53.2383 58.9332 52.9527 58.9845C52.6709 59.0285 52.3817 59.0615 52.0889 59.0432Z" fill="white"/>
            <path d="M52.3045 51.6782C52.1983 51.9532 52.0446 52.1988 51.8835 52.4371C51.7152 52.6717 51.5358 52.8953 51.3125 53.0896C51.4187 52.8147 51.5724 52.5691 51.7335 52.3308C51.9018 52.0961 52.0812 51.8725 52.3045 51.6782Z" fill="white"/>
            <path d="M59.4207 61.2539C59.3146 61.5289 59.1608 61.7745 58.9997 62.0128C58.8314 62.2474 58.652 62.471 58.4287 62.6653C58.5349 62.3904 58.6886 62.1447 58.8497 61.9065C59.0181 61.6718 59.1974 61.4482 59.4207 61.2539Z" fill="white"/>
            <path d="M53.586 64.1244C53.3115 64.018 53.0663 63.8641 52.8283 63.7028C52.5941 63.5341 52.3708 63.3545 52.1768 63.1309C52.4513 63.2372 52.6966 63.3911 52.9345 63.5525C53.1688 63.7211 53.392 63.9007 53.586 64.1244Z" fill="white"/>
            <path d="M56.1548 55.7256C56.605 56.3451 57.0699 56.95 57.5311 57.5586C57.414 57.2506 57.3115 56.9427 57.22 56.6238C57.2163 56.6091 57.2383 56.6018 57.2419 56.6164C57.3371 56.8584 57.4396 57.1003 57.5311 57.3423C57.575 57.4596 57.619 57.5769 57.6629 57.6942C57.6739 57.7199 57.6812 57.7456 57.6922 57.7712C58.0546 58.2441 58.4133 58.7207 58.7574 59.2046C59.171 59.7802 59.57 60.3704 59.9727 60.957C60.3863 61.5619 60.7816 62.2731 61.2172 62.8633C61.2538 62.9146 60.4705 63.2299 60.3973 63.2739C60.3241 63.3142 60.2728 63.2446 60.3497 63.2189C60.4229 63.1969 61.0452 62.8157 61.0525 62.8083C60.6498 62.2181 60.185 61.6719 59.764 61.0926C59.3467 60.5171 58.9258 59.9452 58.5194 59.3586C57.6958 58.1708 56.9381 56.939 56.1218 55.7476C56.1108 55.7329 56.1365 55.7183 56.1474 55.7329L56.1548 55.7256Z" fill="#263238"/>
            <path d="M50.573 59.8607C50.7011 60.11 50.8402 60.3593 50.9537 60.6159C51.0013 60.7222 51.0452 60.8286 51.0928 60.9349C50.8988 60.0184 50.7121 59.1055 50.5254 58.189C50.5254 58.178 50.54 58.1744 50.5437 58.1854C50.9317 59.6701 51.3197 61.1512 51.6784 62.6432C52.0225 64.0656 52.4325 65.5027 52.6302 66.9545C52.7473 66.9141 53.4025 66.6429 53.4208 66.6868C53.4391 66.7308 52.5643 67.1451 52.5496 67.1084C52.0738 65.6934 51.7773 64.0803 51.4515 62.6249C51.36 62.2143 51.2758 61.8037 51.1879 61.3895C51.0928 61.1402 50.9793 60.9019 50.8658 60.6636C50.745 60.407 50.6498 60.143 50.5474 59.8791C50.54 59.8644 50.5657 59.8534 50.573 59.8681V59.8607Z" fill="#263238"/>
            <path d="M52.809 65.5797C53.9804 64.9162 58.8744 62.3793 59.9726 61.9027C60.0495 61.8697 60.0897 61.91 60.0128 61.954C56.55 64.0217 54.0206 65.0335 52.8383 65.6274C52.809 65.6421 52.7797 65.6017 52.809 65.5834V65.5797Z" fill="#263238"/>
            <path d="M186.941 161.96H75.4131L91.5375 70.3643H203.065L186.941 161.96Z" fill="#FFC727"/>
            <path d="M129.709 60.8765H93.21L91.5371 70.3641H130.598L129.709 60.8765Z" fill="#FFC727"/>
            <g opacity="0.1">
                <path d="M186.941 161.96H75.4131L91.5375 70.3643H203.065L186.941 161.96Z" fill="black"/>
                <path d="M129.709 60.8765H93.21L91.5371 70.3641H130.598L129.709 60.8765Z" fill="black"/>
            </g>
            <path d="M89.2719 64.7475C89.1291 64.216 89.0962 63.6844 89.0889 63.1528C89.0925 62.6213 89.1255 62.0897 89.2719 61.5581C89.4183 62.0897 89.4513 62.6213 89.4549 63.1528C89.4476 63.6844 89.4147 64.216 89.2719 64.7475Z" fill="#263238"/>
            <path d="M86.0288 65.6861C85.6372 65.2975 85.3443 64.8539 85.0735 64.3956C84.8136 63.9337 84.5756 63.4571 84.4365 62.9219C84.8282 63.3105 85.121 63.7541 85.3919 64.2123C85.6518 64.6742 85.8897 65.1508 86.0288 65.6861Z" fill="#263238"/>
            <path d="M83.6858 68.124C83.155 67.9847 82.6792 67.7464 82.2143 67.4861C81.7567 67.2148 81.3138 66.9216 80.9258 66.5293C81.4566 66.6686 81.9324 66.9069 82.3973 67.1672C82.8549 67.4385 83.2978 67.7318 83.6858 68.124Z" fill="#263238"/>
            <path d="M82.877 71.405C82.3462 71.548 81.8155 71.5809 81.2847 71.5883C80.7539 71.5846 80.2232 71.5516 79.6924 71.405C80.2232 71.2583 80.7539 71.2253 81.2847 71.2217C81.8155 71.229 82.3462 71.262 82.877 71.405Z" fill="#263238"/>
            <path d="M83.8137 74.6533C83.4257 75.0456 82.9828 75.3389 82.5252 75.6102C82.064 75.8704 81.5881 76.1087 81.0537 76.248C81.4417 75.8558 81.8846 75.5625 82.3422 75.2912C82.8034 75.0309 83.2793 74.7926 83.8137 74.6533Z" fill="#263238"/>
            <path d="M86.2486 76.9995C86.1095 77.5311 85.8715 78.0077 85.6116 78.4732C85.3408 78.9315 85.0479 79.3751 84.6562 79.7637C84.7953 79.2321 85.0333 78.7555 85.2932 78.2899C85.564 77.8317 85.8569 77.3881 86.2486 76.9995Z" fill="#263238"/>
            <path d="M89.5278 77.8096C89.6705 78.3411 89.7035 78.8727 89.7108 79.4043C89.7071 79.9359 89.6742 80.4674 89.5278 80.999C89.3813 80.4674 89.3484 79.9359 89.3447 79.4043C89.352 78.8727 89.385 78.3411 89.5278 77.8096Z" fill="#263238"/>
            <path d="M92.7715 76.8711C93.1632 77.2597 93.456 77.7033 93.7269 78.1615C93.9868 78.6235 94.2247 79.1 94.3638 79.6353C93.9721 79.2467 93.6793 78.8031 93.4084 78.3448C93.1485 77.8829 92.9106 77.4063 92.7715 76.8711Z" fill="#263238"/>
            <path d="M95.1104 74.4331C95.6411 74.5724 96.117 74.8107 96.5819 75.071C97.0394 75.3423 97.4824 75.6356 97.8704 76.0278C97.3396 75.8885 96.8637 75.6502 96.3989 75.3899C95.9413 75.1186 95.4984 74.8254 95.1104 74.4331Z" fill="#263238"/>
            <path d="M95.9189 71.1486C96.4497 71.0057 96.9805 70.9727 97.5113 70.9653C98.042 70.969 98.5728 71.002 99.1036 71.1486C98.5728 71.2953 98.042 71.3283 97.5113 71.3319C96.9805 71.3246 96.4497 71.2916 95.9189 71.1486Z" fill="#263238"/>
            <path d="M94.9824 67.9004C95.3704 67.5081 95.8133 67.2148 96.2709 66.9436C96.7321 66.6833 97.208 66.445 97.7424 66.3057C97.3544 66.6979 96.9115 66.9912 96.4539 67.2625C95.9927 67.5228 95.5169 67.7611 94.9824 67.9004Z" fill="#263238"/>
            <path d="M92.5479 65.5576C92.687 65.0261 92.9249 64.5495 93.1848 64.0839C93.4557 63.6256 93.7485 63.1821 94.1402 62.7935C94.0011 63.325 93.7631 63.8016 93.5032 64.2672C93.2324 64.7254 92.9395 65.169 92.5479 65.5576Z" fill="#263238"/>
            <path d="M186.776 161.959H75.0069L59.1387 73.689H170.908L186.776 161.959Z" fill="#FFC727"/>
            <path d="M97.8707 127.649C100.436 127.649 102.516 125.566 102.516 122.997C102.516 120.428 100.436 118.345 97.8707 118.345C95.3053 118.345 93.2256 120.428 93.2256 122.997C93.2256 125.566 95.3053 127.649 97.8707 127.649Z" fill="#263238"/>
            <path d="M134.592 127.649C137.158 127.649 139.238 125.566 139.238 122.997C139.238 120.428 137.158 118.345 134.592 118.345C132.027 118.345 129.947 120.428 129.947 122.997C129.947 125.566 132.027 127.649 134.592 127.649Z" fill="#263238"/>
            <path d="M122.904 128.39L122.648 127.902C122.626 127.858 120.225 123.415 115.397 123.415C110.993 123.415 109.921 127.598 109.877 127.777L109.745 128.309L108.68 128.052L108.808 127.517C108.819 127.466 110.115 122.315 115.397 122.315C120.679 122.315 123.512 127.183 123.622 127.392L123.878 127.88L122.904 128.39Z" fill="#263238"/>
            <path d="M179.36 122.462C179.598 122.411 179.836 122.356 180.074 122.293" stroke="#263238" stroke-miterlimit="10"/>
            <path d="M181.476 121.879C187.077 119.984 191.766 115.574 192.205 110.419C193.179 99.0544 179.357 92.7782 180.784 79.6429C182.146 67.1161 195.265 66.2216 200.525 67.952C206.334 69.8656 204.343 75.4563 199.083 74.7341C189.965 73.484 184.232 63.5564 188.563 52.2944C191.799 43.8809 199.863 40.7061 203.139 39.7383" stroke="#263238" stroke-miterlimit="10"/>
            <path d="M203.853 39.5478C204.306 39.4305 204.563 39.3828 204.563 39.3828" stroke="#263238" stroke-miterlimit="10"/>
            <path d="M210.369 37.3557C209.435 34.4595 203.183 35.5007 204.402 39.284C205.621 43.071 211.302 40.2518 210.369 37.3557Z" fill="#263238"/>
            <path d="M201.001 36.1861C201.049 34.9139 202.813 33.9388 205.309 34.3897C207.806 34.8406 210.156 36.5233 210.156 36.5233C210.156 36.5233 207.689 38.0337 205.167 38.3013C202.645 38.569 200.957 37.4618 201.005 36.1861H201.001Z" fill="#EBEBEB"/>
            <path d="M210.152 36.5235C208.856 36.5308 207.564 36.4905 206.268 36.4502C204.976 36.3952 203.68 36.3439 202.392 36.2376C203.687 36.2266 204.98 36.2705 206.275 36.3109C207.568 36.3659 208.863 36.4172 210.152 36.5235Z" fill="#263238"/>
            <path d="M203.508 35.0605C203.881 35.2292 204.229 35.4418 204.577 35.6508C204.917 35.8744 205.261 36.0944 205.576 36.3583C205.203 36.1897 204.855 35.9771 204.507 35.7681C204.167 35.5445 203.823 35.3245 203.508 35.0605Z" fill="#263238"/>
            <path d="M206.901 36.4058C206.572 36.6844 206.217 36.919 205.862 37.1573C205.499 37.3809 205.137 37.6082 204.749 37.7915C205.078 37.5129 205.434 37.2783 205.789 37.04C206.151 36.8164 206.513 36.5891 206.901 36.4058Z" fill="#263238"/>
            <path d="M207.278 35.6875C207.472 35.7718 207.633 35.8965 207.794 36.0174C207.948 36.1494 208.102 36.2814 208.226 36.4537C208.032 36.3694 207.871 36.2447 207.71 36.1238C207.557 35.9918 207.403 35.8598 207.278 35.6875Z" fill="#263238"/>
            <path d="M203.38 43.7311C204.16 44.7356 206.162 44.4936 207.923 42.668C209.683 40.8423 210.606 38.1001 210.606 38.1001C210.606 38.1001 207.721 38.3201 205.521 39.5812C203.321 40.8423 202.597 42.7266 203.38 43.7348V43.7311Z" fill="#EBEBEB"/>
            <path d="M210.606 38.0962C209.548 38.8477 208.527 39.6396 207.498 40.4314C206.481 41.2343 205.463 42.0335 204.475 42.873C205.532 42.1215 206.554 41.3296 207.582 40.5378C208.6 39.7349 209.618 38.9357 210.606 38.0962Z" fill="#263238"/>
            <path d="M206.07 43.1738C206.275 42.8182 206.433 42.4406 206.594 42.0667C206.74 41.6854 206.89 41.3078 206.989 40.9082C206.784 41.2638 206.627 41.6414 206.466 42.0153C206.319 42.3966 206.169 42.7742 206.07 43.1738Z" fill="#263238"/>
            <path d="M208.036 40.0981C207.608 40.0651 207.18 40.0834 206.755 40.0981C206.331 40.1274 205.902 40.1531 205.481 40.2337C205.91 40.2667 206.338 40.2484 206.763 40.2337C207.187 40.2044 207.616 40.1751 208.036 40.0981Z" fill="#263238"/>
            <path d="M208.761 40.4573C208.871 40.2777 208.925 40.0834 208.988 39.8891C209.035 39.6911 209.083 39.4931 209.083 39.2842C208.973 39.4638 208.918 39.6581 208.856 39.8524C208.808 40.0504 208.761 40.2483 208.761 40.4573Z" fill="#263238"/>
            <path d="M210.368 37.3555C209.793 37.5425 209.175 37.2236 208.988 36.648C208.801 36.0724 209.12 35.4529 209.694 35.2659C210.269 35.0789 210.888 35.3979 211.074 35.9735C211.261 36.549 210.943 37.1686 210.368 37.3555Z" fill="#455A64"/>
            <path d="M211.042 39.4454C210.467 39.6324 209.849 39.3134 209.662 38.7378C209.475 38.1623 209.794 37.5427 210.368 37.3558C210.943 37.1688 211.562 37.4877 211.748 38.0633C211.935 38.6389 211.617 39.2584 211.042 39.4454Z" fill="#455A64"/>
            <path d="M91.0325 38.5135C90.509 43.5323 86.0176 47.1763 81.0101 46.6521C78.9858 46.4394 77.1849 45.5779 75.7902 44.2948L71.2256 44.9657L73.5097 41.0137C72.957 39.6646 72.7227 38.1616 72.8838 36.6145C73.4072 31.5957 77.8987 27.9517 82.9062 28.4759C87.9174 29.0002 91.5559 33.4984 91.0325 38.5135Z" fill="white"/>
            <path d="M91.0324 38.5135C90.842 40.1816 90.2344 41.8166 89.1911 43.1437C88.9532 43.492 88.6421 43.7816 88.3639 44.0969C88.0454 44.3718 87.7526 44.6761 87.4012 44.9144C86.7349 45.4276 85.9845 45.8309 85.2012 46.1425C84.4215 46.4725 83.5833 46.6301 82.745 46.7291C82.3241 46.7511 81.8994 46.7914 81.4785 46.7547C81.0539 46.7437 80.6329 46.6998 80.2156 46.6228C78.5464 46.3185 76.9651 45.5376 75.7022 44.3902L75.8084 44.4232L71.2474 45.1234L70.918 45.1747L71.0863 44.8814L73.3559 40.9221L73.3449 41.0797C72.2394 38.4732 72.4883 35.3644 73.9086 32.9375C74.6151 31.7204 75.6034 30.6719 76.7674 29.8911C77.9315 29.1065 79.2785 28.6153 80.6622 28.4283C82.0459 28.245 83.4661 28.3697 84.7876 28.8096C86.1053 29.2532 87.317 30.001 88.3053 30.9689C90.3186 32.8862 91.3325 35.764 91.036 38.5135H91.0324ZM91.0324 38.5135C91.3106 35.7604 90.2783 32.9009 88.2614 31.0092C87.2621 30.0634 86.0504 29.3448 84.7436 28.9306C83.4332 28.52 82.0349 28.421 80.6842 28.6263C79.3371 28.8316 78.0303 29.3375 76.9175 30.1184C75.8047 30.9029 74.8676 31.9257 74.1868 33.0988C73.495 34.272 73.1362 35.6174 73.0301 36.9665C72.9459 38.3192 73.1655 39.6903 73.6707 40.9478L73.7036 41.0284L73.6597 41.1017L71.3609 45.0464L71.1962 44.8044L75.7645 44.1629L75.8267 44.1555L75.8706 44.1995C77.0786 45.336 78.605 46.1279 80.2376 46.4541C80.6439 46.5348 81.0575 46.5898 81.4748 46.6044C81.8921 46.6484 82.3058 46.6191 82.723 46.6044C83.5503 46.5201 84.3812 46.3808 85.1609 46.0655C85.9406 45.7722 86.6983 45.3873 87.3609 44.8777C87.7123 44.6468 88.0051 44.3462 88.3236 44.0712C88.6054 43.7596 88.9129 43.4737 89.1545 43.1291C90.2014 41.8129 90.82 40.1852 91.0214 38.5172L91.0324 38.5135Z" fill="#263238"/>
            <path d="M77.5 41.8204C77.5 41.2741 77.877 40.8819 78.3932 40.8819C78.9386 40.8819 79.2863 41.2741 79.2863 41.8204C79.2863 42.3666 78.9386 42.7589 78.3932 42.7589C77.8477 42.7589 77.5 42.3483 77.5 41.8204ZM77.877 39.6538L77.6647 32.3804H79.1179L78.9056 39.6538H77.877Z" fill="#FFC727"/>
            <path d="M80.9775 41.8204C80.9775 41.2741 81.3546 40.8819 81.8707 40.8819C82.4161 40.8819 82.7639 41.2741 82.7639 41.8204C82.7639 42.3666 82.4161 42.7589 81.8707 42.7589C81.3253 42.7589 80.9775 42.3483 80.9775 41.8204ZM81.3546 39.6538L81.1423 32.3804H82.5955L82.3832 39.6538H81.3546Z" fill="#FFC727"/>
            <path d="M84.459 41.8204C84.459 41.2741 84.836 40.8819 85.3521 40.8819C85.8976 40.8819 86.2453 41.2741 86.2453 41.8204C86.2453 42.3666 85.8976 42.7589 85.3521 42.7589C84.8067 42.7589 84.459 42.3483 84.459 41.8204ZM84.836 39.6538L84.6237 32.3804H86.0769L85.8646 39.6538H84.836Z" fill="#FFC727"/>
        </g>
        <path d="M75.9659 204.909V218H74.4318L67.2983 207.722H67.1705V218H65.5852V204.909H67.1193L74.2784 215.213H74.4062V204.909H75.9659ZM82.5621 218.205C81.6757 218.205 80.898 217.994 80.229 217.572C79.5642 217.15 79.0443 216.56 78.6693 215.801C78.2986 215.043 78.1132 214.156 78.1132 213.142C78.1132 212.119 78.2986 211.227 78.6693 210.464C79.0443 209.701 79.5642 209.109 80.229 208.687C80.898 208.265 81.6757 208.054 82.5621 208.054C83.4484 208.054 84.224 208.265 84.8888 208.687C85.5578 209.109 86.0777 209.701 86.4484 210.464C86.8234 211.227 87.0109 212.119 87.0109 213.142C87.0109 214.156 86.8234 215.043 86.4484 215.801C86.0777 216.56 85.5578 217.15 84.8888 217.572C84.224 217.994 83.4484 218.205 82.5621 218.205ZM82.5621 216.849C83.2353 216.849 83.7893 216.677 84.224 216.332C84.6586 215.987 84.9804 215.533 85.1892 214.97C85.398 214.408 85.5024 213.798 85.5024 213.142C85.5024 212.486 85.398 211.874 85.1892 211.308C84.9804 210.741 84.6586 210.283 84.224 209.933C83.7893 209.584 83.2353 209.409 82.5621 209.409C81.8888 209.409 81.3348 209.584 80.9001 209.933C80.4655 210.283 80.1437 210.741 79.9349 211.308C79.7261 211.874 79.6217 212.486 79.6217 213.142C79.6217 213.798 79.7261 214.408 79.9349 214.97C80.1437 215.533 80.4655 215.987 80.9001 216.332C81.3348 216.677 81.8888 216.849 82.5621 216.849ZM97.3635 218.205C96.5454 218.205 95.8231 217.998 95.1966 217.585C94.5702 217.167 94.0802 216.579 93.7265 215.82C93.3728 215.058 93.1959 214.156 93.1959 213.116C93.1959 212.085 93.3728 211.19 93.7265 210.432C94.0802 209.673 94.5723 209.087 95.203 208.674C95.8337 208.261 96.5624 208.054 97.3891 208.054C98.0283 208.054 98.5333 208.161 98.904 208.374C99.279 208.582 99.5645 208.821 99.7606 209.089C99.9608 209.354 100.116 209.571 100.227 209.741H100.355V204.909H101.864V218H100.406V216.491H100.227C100.116 216.67 99.9587 216.896 99.7542 217.169C99.5496 217.437 99.2577 217.678 98.8785 217.891C98.4992 218.1 97.9942 218.205 97.3635 218.205ZM97.5681 216.849C98.1732 216.849 98.6846 216.692 99.1022 216.376C99.5198 216.057 99.8373 215.616 100.055 215.053C100.272 214.487 100.381 213.832 100.381 213.091C100.381 212.358 100.274 211.717 100.061 211.167C99.8479 210.613 99.5326 210.183 99.115 209.876C98.6973 209.565 98.1817 209.409 97.5681 209.409C96.9289 209.409 96.3962 209.573 95.9701 209.901C95.5482 210.225 95.2307 210.666 95.0177 211.224C94.8088 211.778 94.7044 212.401 94.7044 213.091C94.7044 213.79 94.811 214.425 95.024 214.996C95.2414 215.562 95.561 216.014 95.9829 216.351C96.409 216.683 96.9374 216.849 97.5681 216.849ZM107.365 218.23C106.743 218.23 106.178 218.113 105.671 217.879C105.164 217.64 104.761 217.297 104.463 216.849C104.165 216.398 104.016 215.852 104.016 215.213C104.016 214.651 104.126 214.195 104.348 213.845C104.57 213.491 104.866 213.214 105.236 213.014C105.607 212.814 106.016 212.665 106.464 212.567C106.915 212.464 107.369 212.384 107.825 212.324C108.422 212.247 108.906 212.19 109.276 212.151C109.651 212.109 109.924 212.038 110.094 211.94C110.269 211.842 110.357 211.672 110.357 211.429V211.378C110.357 210.747 110.184 210.257 109.839 209.908C109.498 209.558 108.98 209.384 108.285 209.384C107.565 209.384 107.001 209.541 106.592 209.857C106.183 210.172 105.895 210.509 105.729 210.866L104.297 210.355C104.553 209.759 104.893 209.294 105.32 208.962C105.75 208.625 106.219 208.391 106.726 208.259C107.237 208.122 107.74 208.054 108.234 208.054C108.55 208.054 108.912 208.092 109.321 208.169C109.734 208.241 110.133 208.393 110.516 208.623C110.904 208.853 111.226 209.2 111.482 209.665C111.737 210.129 111.865 210.751 111.865 211.531V218H110.357V216.67H110.28C110.178 216.884 110.007 217.112 109.768 217.354C109.53 217.597 109.212 217.804 108.816 217.974C108.42 218.145 107.936 218.23 107.365 218.23ZM107.595 216.875C108.192 216.875 108.695 216.758 109.104 216.523C109.517 216.289 109.828 215.987 110.037 215.616C110.25 215.245 110.357 214.855 110.357 214.446V213.065C110.293 213.142 110.152 213.212 109.935 213.276C109.722 213.336 109.474 213.389 109.193 213.436C108.916 213.479 108.646 213.517 108.381 213.551C108.121 213.581 107.91 213.607 107.749 213.628C107.357 213.679 106.99 213.762 106.649 213.877C106.312 213.988 106.04 214.156 105.831 214.382C105.626 214.604 105.524 214.906 105.524 215.29C105.524 215.814 105.718 216.21 106.106 216.479C106.498 216.743 106.994 216.875 107.595 216.875ZM118.528 208.182V209.46H113.44V208.182H118.528ZM114.923 205.83H116.432V215.188C116.432 215.614 116.494 215.933 116.617 216.146C116.745 216.355 116.907 216.496 117.103 216.568C117.303 216.636 117.514 216.67 117.736 216.67C117.902 216.67 118.038 216.662 118.145 216.645C118.251 216.624 118.337 216.607 118.4 216.594L118.707 217.949C118.605 217.987 118.462 218.026 118.279 218.064C118.096 218.107 117.864 218.128 117.582 218.128C117.156 218.128 116.739 218.036 116.329 217.853C115.925 217.67 115.588 217.391 115.319 217.016C115.055 216.641 114.923 216.168 114.923 215.597V205.83ZM123.327 218.23C122.705 218.23 122.14 218.113 121.633 217.879C121.126 217.64 120.723 217.297 120.425 216.849C120.126 216.398 119.977 215.852 119.977 215.213C119.977 214.651 120.088 214.195 120.31 213.845C120.531 213.491 120.827 213.214 121.198 213.014C121.569 212.814 121.978 212.665 122.425 212.567C122.877 212.464 123.331 212.384 123.787 212.324C124.384 212.247 124.867 212.19 125.238 212.151C125.613 212.109 125.886 212.038 126.056 211.94C126.231 211.842 126.318 211.672 126.318 211.429V211.378C126.318 210.747 126.146 210.257 125.8 209.908C125.459 209.558 124.942 209.384 124.247 209.384C123.527 209.384 122.962 209.541 122.553 209.857C122.144 210.172 121.857 210.509 121.69 210.866L120.259 210.355C120.514 209.759 120.855 209.294 121.281 208.962C121.712 208.625 122.18 208.391 122.687 208.259C123.199 208.122 123.702 208.054 124.196 208.054C124.511 208.054 124.874 208.092 125.283 208.169C125.696 208.241 126.094 208.393 126.478 208.623C126.866 208.853 127.187 209.2 127.443 209.665C127.699 210.129 127.827 210.751 127.827 211.531V218H126.318V216.67H126.241C126.139 216.884 125.969 217.112 125.73 217.354C125.491 217.597 125.174 217.804 124.778 217.974C124.381 218.145 123.898 218.23 123.327 218.23ZM123.557 216.875C124.153 216.875 124.656 216.758 125.065 216.523C125.479 216.289 125.79 215.987 125.999 215.616C126.212 215.245 126.318 214.855 126.318 214.446V213.065C126.254 213.142 126.114 213.212 125.896 213.276C125.683 213.336 125.436 213.389 125.155 213.436C124.878 213.479 124.607 213.517 124.343 213.551C124.083 213.581 123.872 213.607 123.71 213.628C123.318 213.679 122.952 213.762 122.611 213.877C122.274 213.988 122.001 214.156 121.793 214.382C121.588 214.604 121.486 214.906 121.486 215.29C121.486 215.814 121.68 216.21 122.067 216.479C122.459 216.743 122.956 216.875 123.557 216.875ZM135.894 221.682C135.638 221.682 135.41 221.661 135.21 221.618C135.01 221.58 134.871 221.541 134.795 221.503L135.178 220.173C135.545 220.267 135.869 220.301 136.15 220.276C136.431 220.25 136.68 220.124 136.898 219.898C137.119 219.677 137.322 219.317 137.505 218.818L137.786 218.051L134.156 208.182H135.792L138.502 216.006H138.604L141.315 208.182H142.951L138.783 219.432C138.596 219.939 138.364 220.359 138.087 220.691C137.81 221.028 137.488 221.277 137.121 221.439C136.759 221.601 136.35 221.682 135.894 221.682ZM148.347 218.205C147.401 218.205 146.585 217.996 145.899 217.578C145.217 217.156 144.691 216.568 144.32 215.814C143.954 215.055 143.77 214.173 143.77 213.168C143.77 212.162 143.954 211.276 144.32 210.509C144.691 209.737 145.206 209.136 145.867 208.706C146.532 208.271 147.307 208.054 148.194 208.054C148.705 208.054 149.21 208.139 149.709 208.31C150.207 208.48 150.661 208.757 151.07 209.141C151.479 209.52 151.805 210.023 152.048 210.649C152.291 211.276 152.412 212.047 152.412 212.963V213.602H144.844V212.298H150.878C150.878 211.744 150.767 211.25 150.546 210.815C150.329 210.381 150.017 210.038 149.613 209.786C149.212 209.535 148.739 209.409 148.194 209.409C147.593 209.409 147.073 209.558 146.634 209.857C146.199 210.151 145.865 210.534 145.63 211.007C145.396 211.48 145.279 211.987 145.279 212.528V213.398C145.279 214.139 145.407 214.768 145.662 215.283C145.922 215.795 146.282 216.185 146.743 216.453C147.203 216.717 147.738 216.849 148.347 216.849C148.743 216.849 149.101 216.794 149.421 216.683C149.745 216.568 150.024 216.398 150.258 216.172C150.493 215.942 150.674 215.656 150.802 215.315L152.259 215.724C152.106 216.219 151.848 216.653 151.485 217.028C151.123 217.399 150.676 217.689 150.143 217.898C149.61 218.102 149.012 218.205 148.347 218.205ZM158.617 208.182V209.46H153.529V208.182H158.617ZM155.012 205.83H156.52V215.188C156.52 215.614 156.582 215.933 156.706 216.146C156.834 216.355 156.996 216.496 157.192 216.568C157.392 216.636 157.603 216.67 157.824 216.67C157.991 216.67 158.127 216.662 158.233 216.645C158.34 216.624 158.425 216.607 158.489 216.594L158.796 217.949C158.694 217.987 158.551 218.026 158.368 218.064C158.184 218.107 157.952 218.128 157.671 218.128C157.245 218.128 156.827 218.036 156.418 217.853C156.013 217.67 155.677 217.391 155.408 217.016C155.144 216.641 155.012 216.168 155.012 215.597V205.83Z" fill="#6F767E"/>
        <defs>
            <clipPath id="clip0_220_20758">
                <rect width="224" height="147" fill="white" transform="translate(0 24)"/>
            </clipPath>
        </defs>
    </symbol>

</svg>