<svg xmlns="http://www.w3.org/2000/svg" xmlns:xlink="http://www.w3.org/1999/xlink" version="1.1" style="display: none;">
    <symbol id="wallet" viewBox="0 0 24 24" fill="currentColor">
        <path fill-rule="evenodd" clip-rule="evenodd" d="M20 6.17071V5C20 3.34315 18.6569 2 17 2H5C3.34315 2 2 3.34315 2 5V19C2 20.6569 3.34315 22 5 22H19C20.6569 22 22 20.6569 22 19V9C22 7.69378 21.1652 6.58254 20 6.17071ZM4 5C4 4.44772 4.44772 4 5 4H17C17.5523 4 18 4.44772 18 5V6H5C4.44772 6 4 5.55228 4 5ZM4 7.82929C4.31278 7.93985 4.64936 8 5 8H19C19.5523 8 20 8.44771 20 9V11H17C15.3431 11 14 12.3431 14 14C14 15.6569 15.3431 17 17 17H20V19C20 19.5523 19.5523 20 19 20H5C4.44772 20 4 19.5523 4 19V7.82929ZM17 13H20V15H17C16.4477 15 16 14.5523 16 14C16 13.4477 16.4477 13 17 13Z" />
    </symbol>
    <symbol id="web-development" viewBox="0 0 24 24" fill="currentColor">
        <path d="M7 6C7 6.55228 6.55228 7 6 7C5.44772 7 5 6.55228 5 6C5 5.44772 5.44772 5 6 5C6.55228 5 7 5.44772 7 6Z" />
        <path d="M10 6C10 6.55228 9.55228 7 9 7C8.44772 7 8 6.55228 8 6C8 5.44772 8.44772 5 9 5C9.55228 5 10 5.44772 10 6Z" />
        <path d="M13 6C13 6.55228 12.5523 7 12 7C11.4477 7 11 6.55228 11 6C11 5.44772 11.4477 5 12 5C12.5523 5 13 5.44772 13 6Z" />
        <path fill-rule="evenodd" clip-rule="evenodd" d="M14.7929 17.4213C14.4024 17.0308 14.4024 16.3977 14.7929 16.0071L15.8001 14.9999L14.7929 13.9928C14.4024 13.6022 14.4024 12.9691 14.7929 12.5786C15.1834 12.188 15.8166 12.188 16.2071 12.5786L17.9214 14.2928C18.3119 14.6834 18.3119 15.3165 17.9214 15.7071L16.2071 17.4213C15.8166 17.8119 15.1834 17.8119 14.7929 17.4213Z" />
        <path fill-rule="evenodd" clip-rule="evenodd" d="M9.20711 17.4213C9.59763 17.0308 9.59763 16.3977 9.20711 16.0071L8.19993 14.9999L9.20711 13.9928C9.59763 13.6022 9.59763 12.9691 9.20711 12.5786C8.81658 12.188 8.18342 12.188 7.79289 12.5786L6.07861 14.2928C5.68808 14.6834 5.68808 15.3165 6.07861 15.7071L7.79289 17.4213C8.18342 17.8119 8.81658 17.8119 9.20711 17.4213Z" />
        <path fill-rule="evenodd" clip-rule="evenodd" d="M13.1319 11.0385C12.6009 10.8868 12.0474 11.1943 11.8956 11.7253L10.1814 17.7253C10.0296 18.2563 10.3371 18.8098 10.8682 18.9615C11.3992 19.1133 11.9527 18.8058 12.1044 18.2747L13.8187 12.2747C13.9704 11.7437 13.6629 11.1902 13.1319 11.0385Z" />
        <path fill-rule="evenodd" clip-rule="evenodd" d="M2 5C2 3.34315 3.34315 2 5 2H19C20.6569 2 22 3.34315 22 5V19C22 20.6569 20.6569 22 19 22H5C3.34315 22 2 20.6569 2 19V5ZM5 4H19C19.5523 4 20 4.44771 20 5V8H4V5C4 4.44772 4.44771 4 5 4ZM4 10V19C4 19.5523 4.44772 20 5 20H19C19.5523 20 20 19.5523 20 19V10H4Z" />
    </symbol>
    <symbol id="bank" viewBox="0 0 24 24" fill="currentColor">
        <path fill-rule="evenodd" clip-rule="evenodd" d="M12.8655 4.52471C12.3184 4.26211 11.6816 4.26211 11.1345 4.52471L3.89424 8.00006L3.02878 6.19701L10.2691 2.72167C11.3633 2.19646 12.6367 2.19646 13.7309 2.72167L20.9712 6.19701C22.8897 7.11786 22.2338 10.0001 20.1058 10.0001H3.89424C1.76624 10.0001 1.11035 7.11785 3.02878 6.19701L3.89424 8.00006L20.1058 8.00006L12.8655 4.52471Z" />
        <path fill-rule="evenodd" clip-rule="evenodd" d="M12 11C12.5523 11 13 11.4477 13 12V18C13 18.5523 12.5523 19 12 19C11.4477 19 11 18.5523 11 18V12C11 11.4477 11.4477 11 12 11Z" />
        <path fill-rule="evenodd" clip-rule="evenodd" d="M5 11C5.55228 11 6 11.4477 6 12V18C6 18.5523 5.55228 19 5 19C4.44772 19 4 18.5523 4 18V12C4 11.4477 4.44772 11 5 11Z" />
        <path fill-rule="evenodd" clip-rule="evenodd" d="M19 11C19.5523 11 20 11.4477 20 12V18C20 18.5523 19.5523 19 19 19C18.4477 19 18 18.5523 18 18V12C18 11.4477 18.4477 11 19 11Z" />
        <path fill-rule="evenodd" clip-rule="evenodd" d="M2 21C2 20.4477 2.44772 20 3 20H21C21.5523 20 22 20.4477 22 21C22 21.5523 21.5523 22 21 22H3C2.44772 22 2 21.5523 2 21Z" />
    </symbol>
    <symbol id="profile" viewBox="0 0 24 24" fill="currentColor">
        <path fill-rule="evenodd" clip-rule="evenodd" d="M12 12C13.1046 12 14 11.1046 14 10C14 8.89543 13.1046 8 12 8C10.8954 8 10 8.89543 10 10C10 11.1046 10.8954 12 12 12ZM12 14C14.2091 14 16 12.2091 16 10C16 7.79086 14.2091 6 12 6C9.79086 6 8 7.79086 8 10C8 12.2091 9.79086 14 12 14Z" />
        <path fill-rule="evenodd" clip-rule="evenodd" d="M18.5588 19.5488C20.6672 17.7154 22 15.0134 22 12C22 6.47715 17.5228 2 12 2C6.47715 2 2 6.47715 2 12C2 15.0134 3.33284 17.7154 5.44116 19.5488C7.19693 21.0756 9.49052 22 12 22C14.4162 22 16.6323 21.143 18.3609 19.7165C18.4276 19.6614 18.4936 19.6055 18.5588 19.5488ZM12.2579 19.9959C12.1723 19.9986 12.0863 20 12 20C11.9914 20 11.9827 20 11.9741 20C11.8937 19.9997 11.8135 19.9983 11.7337 19.9956C10.3914 19.9517 9.13273 19.5772 8.03655 18.9508C8.95181 17.7632 10.3882 17 12 17C13.6118 17 15.0482 17.7632 15.9634 18.9508C14.865 19.5785 13.6033 19.9533 12.2579 19.9959ZM17.5624 17.7498C16.2832 16.0781 14.2675 15 12 15C9.73249 15 7.7168 16.0781 6.43759 17.7498C4.93447 16.2953 4 14.2568 4 12C4 7.58172 7.58172 4 12 4C16.4183 4 20 7.58172 20 12C20 14.2568 19.0655 16.2953 17.5624 17.7498Z" />
    </symbol>
    <symbol id="sim" viewBox="0 0 24 24" fill="currentColor">
        <path d="M6.9499 19.075H8.4499V17.575H6.9499V19.075ZM6.9499 15.175H8.4499V11.025H6.9499V15.175ZM11.1999 19.075H12.6999V14.825H11.1999V19.075ZM11.1999 12.525H12.6999V11.025H11.1999V12.525ZM15.6499 19.075H17.1499V17.575H15.6499V19.075ZM15.6499 15.175H17.1499V11.025H15.6499V15.175ZM5.6249 22.35C5.09157 22.35 4.62907 22.1542 4.2374 21.7625C3.84574 21.3708 3.6499 20.9083 3.6499 20.375V7.825L9.8249 1.625H18.3749C18.9249 1.625 19.3957 1.82083 19.7874 2.2125C20.1791 2.60417 20.3749 3.075 20.3749 3.625V20.375C20.3749 20.9083 20.1791 21.3708 19.7874 21.7625C19.3957 22.1542 18.9249 22.35 18.3749 22.35H5.6249ZM5.6249 20.375H18.3749V3.625H10.7249L5.6249 8.7V20.375ZM5.6249 20.375H18.3749H5.6249Z" />
    </symbol>
    <symbol id="home" viewBox="0 0 24 24" fill="currentColor">
        <path fill-rule="evenodd" clip-rule="evenodd" d="M5 22C3.34315 22 2 20.6569 2 19V11.3361C2 10.4857 2.36096 9.67518 2.99311 9.10625L9.9931 2.80625C11.134 1.77943 12.866 1.77943 14.0069 2.80625L21.0069 9.10625C21.639 9.67518 22 10.4857 22 11.3361V19C22 20.6569 20.6569 22 19 22H5ZM20 11.3361V19C20 19.5523 19.5523 20 19 20H16V15C16 13.3432 14.6569 12 13 12H11C9.34315 12 8 13.3432 8 15V20H5C4.44772 20 4 19.5523 4 19V11.3361C4 11.0526 4.12032 10.7825 4.33104 10.5928L11.331 4.29284C11.7113 3.95056 12.2887 3.95056 12.669 4.29284L19.669 10.5928C19.8797 10.7825 20 11.0526 20 11.3361ZM10 20V15C10 14.4478 10.4477 14 11 14H13C13.5523 14 14 14.4478 14 15V20H10Z" />
    </symbol>
    <symbol id="message" viewBox="0 0 24 24" fill="currentColor">
        <path fill-rule="evenodd" clip-rule="evenodd" d="M7 9C7 8.44772 7.44772 8 8 8H16C16.5523 8 17 8.44772 17 9C17 9.55228 16.5523 10 16 10H8C7.44772 10 7 9.55228 7 9Z" />
        <path fill-rule="evenodd" clip-rule="evenodd" d="M7 13C7 12.4477 7.44772 12 8 12H12C12.5523 12 13 12.4477 13 13C13 13.5523 12.5523 14 12 14H8C7.44772 14 7 13.5523 7 13Z" />
        <path fill-rule="evenodd" clip-rule="evenodd" d="M6.71963 17.4636C7.07906 17.164 7.53213 17 8 17H19C19.5523 17 20 16.5523 20 16V6C20 5.44771 19.5523 5 19 5H5C4.44772 5 4 5.44772 4 6V19.7299L6.71963 17.4636ZM8 19H19C20.6569 19 22 17.6569 22 16V6C22 4.34315 20.6569 3 19 3H5C3.34315 3 2 4.34315 2 6V19.7299C2 21.4256 3.97771 22.3519 5.28037 21.2664L8 19Z" />
    </symbol>
    <symbol id="notification" viewBox="0 0 24 24" fill="currentColor">
        <path fill-rule="evenodd" clip-rule="evenodd" d="M2 16.5959C2 16.2151 2.15471 15.8506 2.42864 15.586L3.45759 14.5922C3.84928 14.2139 4.06977 13.6922 4.06814 13.1476L4.05867 9.9946C4.04543 5.58319 7.61789 2 12.0293 2C16.4314 2 20 5.56859 20 9.97067L20 13.1716C20 13.702 20.2107 14.2107 20.5858 14.5858L21.5858 15.5858C21.851 15.851 22 16.2107 22 16.5858C22 17.3668 21.3668 18 20.5858 18H16C16 20.2091 14.2091 22 12 22C9.79086 22 8 20.2091 8 18H3.40408C2.62863 18 2 17.3714 2 16.5959ZM10 18C10 19.1046 10.8954 20 12 20C13.1046 20 14 19.1046 14 18H10ZM18 13.1716C18 14.2324 18.4214 15.2499 19.1716 16L4.87851 16C5.64222 15.246 6.07136 14.2161 6.06813 13.1416L6.05867 9.9886C6.04875 6.6841 8.7248 4 12.0293 4C15.3268 4 18 6.67316 18 9.97067L18 13.1716Z" />
    </symbol>
    <symbol id="arrow-left" viewBox="0 0 16 16" fill="currentColor">
        <path fill-rule="evenodd" clip-rule="evenodd" d="M10.4715 12.8047C10.7318 12.5444 10.7318 12.1223 10.4715 11.8619L6.60956 8L10.4715 4.13807C10.7318 3.87772 10.7318 3.45561 10.4715 3.19526C10.2111 2.93491 9.78903 2.93491 9.52868 3.19526L5.66675 7.05719C5.14605 7.57789 5.14605 8.42211 5.66675 8.94281L9.52868 12.8047C9.78903 13.0651 10.2111 13.0651 10.4715 12.8047Z" />
    </symbol>
    <symbol id="arrow-right" viewBox="0 0 16 16" fill="currentColor">
        <path fill-rule="evenodd" clip-rule="evenodd" d="M5.36189 12.8047C5.10154 12.5444 5.10154 12.1223 5.36189 11.8619L9.22382 8L5.36189 4.13807C5.10154 3.87772 5.10154 3.45561 5.36189 3.19526C5.62224 2.93491 6.04435 2.93491 6.3047 3.19526L10.1666 7.05719C10.6873 7.57789 10.6873 8.42211 10.1666 8.94281L6.3047 12.8047C6.04435 13.0651 5.62224 13.0651 5.36189 12.8047Z" />
    </symbol>
    <symbol id="arrow-down" viewBox="0 0 16 16" fill="currentColor">
        <path fill-rule="evenodd" clip-rule="evenodd" d="M3.19526 5.69526C3.45561 5.43491 3.87772 5.43491 4.13807 5.69526L8 9.55719L11.8619 5.69526C12.1223 5.43491 12.5444 5.43491 12.8047 5.69526C13.0651 5.95561 13.0651 6.37772 12.8047 6.63807L8.94281 10.5C8.42211 11.0207 7.57789 11.0207 7.05719 10.5L3.19526 6.63807C2.93491 6.37772 2.93491 5.95561 3.19526 5.69526Z" />
    </symbol>
    <symbol id="arrow-up" viewBox="0 0 24 24" fill="currentColor">
        <path d="M17.2929 15.7071C17.6834 16.0976 18.3166 16.0976 18.7071 15.7071C19.0976 15.3166 19.0976 14.6834 18.7071 14.2929L17.2929 15.7071ZM12 9L12.7071 8.29289C12.3166 7.90237 11.6834 7.90237 11.2929 8.29289L12 9ZM5.29289 14.2929C4.90237 14.6834 4.90237 15.3166 5.29289 15.7071C5.68342 16.0976 6.31658 16.0976 6.70711 15.7071L5.29289 14.2929ZM18.7071 14.2929L12.7071 8.29289L11.2929 9.70711L17.2929 15.7071L18.7071 14.2929ZM11.2929 8.29289L5.29289 14.2929L6.70711 15.7071L12.7071 9.70711L11.2929 8.29289Z" />
    </symbol>
    <symbol id="table-expand-arrow-left" viewBox="0 0 24 24" fill="currentColor">
        <path d="M8.29289 17.2929C7.90237 17.6834 7.90237 18.3166 8.29289 18.7071C8.68342 19.0976 9.31658 19.0976 9.70711 18.7071L8.29289 17.2929ZM15 12L15.7071 12.7071C16.0976 12.3166 16.0976 11.6834 15.7071 11.2929L15 12ZM9.70711 5.29289C9.31658 4.90237 8.68342 4.90237 8.29289 5.29289C7.90237 5.68342 7.90237 6.31658 8.29289 6.70711L9.70711 5.29289ZM9.70711 18.7071L15.7071 12.7071L14.2929 11.2929L8.29289 17.2929L9.70711 18.7071ZM15.7071 11.2929L9.70711 5.29289L8.29289 6.70711L14.2929 12.7071L15.7071 11.2929Z" />
    </symbol>
    <symbol id="table-expand-arrow-down" viewBox="0 0 24 24" fill="currentColor">
        <path d="M6.70711 8.29289C6.31658 7.90237 5.68342 7.90237 5.29289 8.29289C4.90237 8.68342 4.90237 9.31658 5.29289 9.70711L6.70711 8.29289ZM12 15L11.2929 15.7071C11.6834 16.0976 12.3166 16.0976 12.7071 15.7071L12 15ZM18.7071 9.70711C19.0976 9.31658 19.0976 8.68342 18.7071 8.29289C18.3166 7.90237 17.6834 7.90237 17.2929 8.29289L18.7071 9.70711ZM5.29289 9.70711L11.2929 15.7071L12.7071 14.2929L6.70711 8.29289L5.29289 9.70711ZM12.7071 15.7071L18.7071 9.70711L17.2929 8.29289L11.2929 14.2929L12.7071 15.7071Z" />
    </symbol>
    <symbol id="code" viewBox="0 0 64 64" fill="none">
        <path fill-rule="evenodd" clip-rule="evenodd" d="M36.2929 36.7071C35.9024 36.3166 35.9024 35.6834 36.2929 35.2929L39.5858 32L36.2929 28.7071C35.9024 28.3166 35.9024 27.6834 36.2929 27.2929C36.6834 26.9024 37.3166 26.9024 37.7071 27.2929L41.7071 31.2929C42.0976 31.6834 42.0976 32.3166 41.7071 32.7071L37.7071 36.7071C37.3166 37.0976 36.6834 37.0976 36.2929 36.7071Z" fill="#1A1D1F" />
        <path fill-rule="evenodd" clip-rule="evenodd" d="M27.7071 36.7071C28.0976 36.3166 28.0976 35.6834 27.7071 35.2929L24.4142 32L27.7071 28.7071C28.0976 28.3166 28.0976 27.6834 27.7071 27.2929C27.3166 26.9024 26.6834 26.9024 26.2929 27.2929L22.2929 31.2929C21.9024 31.6834 21.9024 32.3166 22.2929 32.7071L26.2929 36.7071C26.6834 37.0976 27.3166 37.0976 27.7071 36.7071Z" fill="#1A1D1F" />
        <path fill-rule="evenodd" clip-rule="evenodd" d="M34.2747 24.0385C33.7437 23.8868 33.1902 24.1943 33.0385 24.7253L29.0385 38.7253C28.8867 39.2563 29.1942 39.8098 29.7253 39.9615C30.2563 40.1133 30.8098 39.8058 30.9615 39.2747L34.9615 25.2747C35.1132 24.7437 34.8057 24.1902 34.2747 24.0385Z" fill="#1A1D1F" />
        <rect x="1" y="1" width="62" height="62" rx="31" stroke="#EFEFEF" stroke-width="2" />
    </symbol>
    <symbol id="search" viewBox="0 0 24 24" fill="currentColor">
        <path fill-rule="evenodd" clip-rule="evenodd" d="M18 11C18 14.866 14.866 18 11 18C7.13401 18 4 14.866 4 11C4 7.13401 7.13401 4 11 4C14.866 4 18 7.13401 18 11ZM18.0319 16.6177C19.2635 15.078 20 13.125 20 11C20 6.02944 15.9706 2 11 2C6.02944 2 2 6.02944 2 11C2 15.9706 6.02944 20 11 20C13.125 20 15.078 19.2635 16.6177 18.0319L19.2929 20.7071C19.6834 21.0976 20.3166 21.0976 20.7071 20.7071C21.0976 20.3166 21.0976 19.6834 20.7071 19.2929L18.0319 16.6177Z"/>
    </symbol>

</svg>